%TF.GenerationSoftware,KiCad,Pcbnew,8.0.9-8.0.9-0~ubuntu24.04.1*%
%TF.CreationDate,2026-07-30T07:32:17+03:00*%
%TF.ProjectId,power supply,706f7765-7220-4737-9570-706c792e6b69,rev?*%
%TF.SameCoordinates,Original*%
%TF.FileFunction,Copper,L2,Bot*%
%TF.FilePolarity,Positive*%
%FSLAX46Y46*%
G04 Gerber Fmt 4.6, Leading zero omitted, Abs format (unit mm)*
G04 Created by KiCad (PCBNEW 8.0.9-8.0.9-0~ubuntu24.04.1) date 2026-07-30 07:32:17*
%MOMM*%
%LPD*%
G01*
G04 APERTURE LIST*
%TA.AperFunction,ComponentPad*%
%ADD10O,1.400000X1.400000*%
%TD*%
%TA.AperFunction,ComponentPad*%
%ADD11C,1.400000*%
%TD*%
%TA.AperFunction,ComponentPad*%
%ADD12O,1.700000X1.700000*%
%TD*%
%TA.AperFunction,ComponentPad*%
%ADD13R,1.700000X1.700000*%
%TD*%
%TA.AperFunction,ComponentPad*%
%ADD14R,1.800000X1.800000*%
%TD*%
%TA.AperFunction,ComponentPad*%
%ADD15C,1.800000*%
%TD*%
%TA.AperFunction,ComponentPad*%
%ADD16R,2.200000X2.200000*%
%TD*%
%TA.AperFunction,ComponentPad*%
%ADD17O,2.200000X2.200000*%
%TD*%
%TA.AperFunction,ComponentPad*%
%ADD18C,1.600000*%
%TD*%
%TA.AperFunction,ComponentPad*%
%ADD19R,1.600000X1.600000*%
%TD*%
%TA.AperFunction,Conductor*%
%ADD20C,1.200000*%
%TD*%
G04 APERTURE END LIST*
D10*
%TO.P,R2,2*%
%TO.N,GND*%
X170190000Y-102500000D03*
D11*
%TO.P,R2,1*%
%TO.N,Net-(D6-K)*%
X177810000Y-102500000D03*
%TD*%
D10*
%TO.P,R1,2*%
%TO.N,Net-(D1-K)*%
X172500000Y-107190000D03*
D11*
%TO.P,R1,1*%
%TO.N,Net-(D3-A)*%
X172500000Y-114810000D03*
%TD*%
D12*
%TO.P,J2,2,Pin_2*%
%TO.N,Net-(D1-K)*%
X193000000Y-113460000D03*
D13*
%TO.P,J2,1,Pin_1*%
%TO.N,GND*%
X193000000Y-116000000D03*
%TD*%
D12*
%TO.P,J1,2,Pin_2*%
%TO.N,Net-(D3-K)*%
X142500000Y-115540000D03*
D13*
%TO.P,J1,1,Pin_1*%
%TO.N,Net-(D2-A)*%
X142500000Y-113000000D03*
%TD*%
D14*
%TO.P,D6,1,K*%
%TO.N,Net-(D6-K)*%
X184000000Y-108000000D03*
D15*
%TO.P,D6,2,A*%
%TO.N,Net-(D1-K)*%
X186540000Y-108000000D03*
%TD*%
D16*
%TO.P,D5,1,K*%
%TO.N,Net-(D2-A)*%
X164500000Y-100420000D03*
D17*
%TO.P,D5,2,A*%
%TO.N,Net-(D3-A)*%
X164500000Y-110580000D03*
%TD*%
%TO.P,D4,2,A*%
%TO.N,Net-(D3-K)*%
X154920000Y-127660000D03*
D16*
%TO.P,D4,1,K*%
%TO.N,GND*%
X154920000Y-117500000D03*
%TD*%
D17*
%TO.P,D3,2,A*%
%TO.N,Net-(D3-A)*%
X164500000Y-117420000D03*
D16*
%TO.P,D3,1,K*%
%TO.N,Net-(D3-K)*%
X164500000Y-127580000D03*
%TD*%
%TO.P,D2,1,K*%
%TO.N,GND*%
X155000000Y-110580000D03*
D17*
%TO.P,D2,2,A*%
%TO.N,Net-(D2-A)*%
X155000000Y-100420000D03*
%TD*%
D18*
%TO.P,C1,2*%
%TO.N,Net-(D3-A)*%
X172500000Y-121000000D03*
D19*
%TO.P,C1,1*%
%TO.N,GND*%
X172500000Y-124500000D03*
%TD*%
D20*
%TO.N,Net-(D6-K)*%
X184000000Y-108000000D02*
X183310000Y-108000000D01*
X183310000Y-108000000D02*
X177810000Y-102500000D01*
%TO.N,Net-(D1-K)*%
X193000000Y-113460000D02*
X192000000Y-113460000D01*
X192000000Y-113460000D02*
X186540000Y-108000000D01*
X172500000Y-107190000D02*
X172500000Y-109000000D01*
X172500000Y-109000000D02*
X184500000Y-121000000D01*
X184500000Y-121000000D02*
X192040000Y-113460000D01*
%TO.N,GND*%
X193000000Y-116000000D02*
X184500000Y-124500000D01*
X172500000Y-124500000D02*
X184500000Y-124500000D01*
%TO.N,Net-(D3-A)*%
X164500000Y-117420000D02*
X164500000Y-110580000D01*
X164500000Y-117420000D02*
X169890000Y-117420000D01*
X169890000Y-117420000D02*
X172500000Y-114810000D01*
X172500000Y-121000000D02*
X172500000Y-114810000D01*
%TO.N,GND*%
X154920000Y-117500000D02*
X157000000Y-117500000D01*
X157000000Y-117500000D02*
X160500000Y-121000000D01*
X160500000Y-121000000D02*
X164000000Y-121000000D01*
X164000000Y-121000000D02*
X167500000Y-124500000D01*
X167500000Y-124500000D02*
X172500000Y-124500000D01*
%TO.N,Net-(D2-A)*%
X164500000Y-100420000D02*
X155000000Y-100420000D01*
%TO.N,GND*%
X155000000Y-110580000D02*
X156420000Y-110580000D01*
X156420000Y-110580000D02*
X161000000Y-106000000D01*
X161000000Y-106000000D02*
X166690000Y-106000000D01*
X166690000Y-106000000D02*
X170190000Y-102500000D01*
X155000000Y-110580000D02*
X155000000Y-117420000D01*
%TO.N,Net-(D2-A)*%
X142500000Y-112920000D02*
X155000000Y-100420000D01*
%TO.N,Net-(D3-K)*%
X142500000Y-115540000D02*
X154620000Y-127660000D01*
X164500000Y-127580000D02*
X155000000Y-127580000D01*
%TD*%
M02*
