M48
; DRILL file {KiCad 8.0.9-8.0.9-0~ubuntu24.04.1} date 2026-07-30T07:31:48+0300
; FORMAT={-:-/ absolute / inch / decimal}
; #@! TF.CreationDate,2026-07-30T07:31:48+03:00
; #@! TF.GenerationSoftware,Kicad,Pcbnew,8.0.9-8.0.9-0~ubuntu24.04.1
; #@! TF.FileFunction,Plated,1,2,PTH
FMAT,2
INCH
; #@! TA.AperFunction,Plated,PTH,ComponentDrill
T1C0.0276
; #@! TA.AperFunction,Plated,PTH,ComponentDrill
T2C0.0315
; #@! TA.AperFunction,Plated,PTH,ComponentDrill
T3C0.0354
; #@! TA.AperFunction,Plated,PTH,ComponentDrill
T4C0.0394
; #@! TA.AperFunction,Plated,PTH,ComponentDrill
T5C0.0433
%
G90
G05
T1
X6.7004Y-4.0354
X6.7913Y-4.2201
X6.7913Y-4.5201
X7.0004Y-4.0354
T2
X6.7913Y-4.7638
X6.7913Y-4.9016
T3
X7.2441Y-4.252
X7.3441Y-4.252
T4
X5.6102Y-4.4488
X5.6102Y-4.5488
X7.5984Y-4.4669
X7.5984Y-4.5669
T5
X6.0992Y-4.626
X6.0992Y-5.026
X6.1024Y-3.9535
X6.1024Y-4.3535
X6.4764Y-3.9535
X6.4764Y-4.3535
X6.4764Y-4.6228
X6.4764Y-5.0228
M30
