%TF.GenerationSoftware,KiCad,Pcbnew,8.0.9-8.0.9-0~ubuntu24.04.1*%
%TF.CreationDate,2026-07-30T07:31:45+03:00*%
%TF.ProjectId,power supply,706f7765-7220-4737-9570-706c792e6b69,rev?*%
%TF.SameCoordinates,Original*%
%TF.FileFunction,Drillmap*%
%TF.FilePolarity,Positive*%
%FSLAX45Y45*%
G04 Gerber Fmt 4.5, Leading zero omitted, Abs format (unit mm)*
G04 Created by KiCad (PCBNEW 8.0.9-8.0.9-0~ubuntu24.04.1) date 2026-07-30 07:31:45*
%MOMM*%
%LPD*%
G01*
G04 APERTURE LIST*
%ADD10C,0.200000*%
%ADD11C,0.100000*%
%ADD12C,0.110000*%
G04 APERTURE END LIST*
D10*
D11*
X16984000Y-10215000D02*
X17054000Y-10285000D01*
X17054000Y-10215000D02*
X16984000Y-10285000D01*
X17215000Y-10684000D02*
X17285000Y-10754000D01*
X17285000Y-10684000D02*
X17215000Y-10754000D01*
X17215000Y-11446000D02*
X17285000Y-11516000D01*
X17285000Y-11446000D02*
X17215000Y-11516000D01*
X17746000Y-10215000D02*
X17816000Y-10285000D01*
X17816000Y-10215000D02*
X17746000Y-10285000D01*
X17290000Y-12100000D02*
G75*
G02*
X17210000Y-12100000I-40000J0D01*
G01*
X17210000Y-12100000D02*
G75*
G02*
X17290000Y-12100000I40000J0D01*
G01*
X17290000Y-12450000D02*
G75*
G02*
X17210000Y-12450000I-40000J0D01*
G01*
X17210000Y-12450000D02*
G75*
G02*
X17290000Y-12450000I40000J0D01*
G01*
X18400000Y-10755000D02*
X18400000Y-10845000D01*
X18355000Y-10800000D02*
X18445000Y-10800000D01*
X18654000Y-10755000D02*
X18654000Y-10845000D01*
X18609000Y-10800000D02*
X18699000Y-10800000D01*
X14285356Y-11335356D02*
X14285356Y-11264644D01*
X14214644Y-11264644D01*
X14214644Y-11335356D01*
X14285356Y-11335356D01*
X14285356Y-11589356D02*
X14285356Y-11518644D01*
X14214644Y-11518644D01*
X14214644Y-11589356D01*
X14285356Y-11589356D01*
X19335356Y-11381356D02*
X19335356Y-11310644D01*
X19264644Y-11310644D01*
X19264644Y-11381356D01*
X19335356Y-11381356D01*
X19335356Y-11635356D02*
X19335356Y-11564644D01*
X19264644Y-11564644D01*
X19264644Y-11635356D01*
X19335356Y-11635356D01*
D12*
X15492000Y-11805000D02*
X15547000Y-11750000D01*
X15492000Y-11695000D01*
X15437000Y-11750000D01*
X15492000Y-11805000D01*
X15492000Y-12821000D02*
X15547000Y-12766000D01*
X15492000Y-12711000D01*
X15437000Y-12766000D01*
X15492000Y-12821000D01*
X15500000Y-10097000D02*
X15555000Y-10042000D01*
X15500000Y-9987000D01*
X15445000Y-10042000D01*
X15500000Y-10097000D01*
X15500000Y-11113000D02*
X15555000Y-11058000D01*
X15500000Y-11003000D01*
X15445000Y-11058000D01*
X15500000Y-11113000D01*
X16450000Y-10097000D02*
X16505000Y-10042000D01*
X16450000Y-9987000D01*
X16395000Y-10042000D01*
X16450000Y-10097000D01*
X16450000Y-11113000D02*
X16505000Y-11058000D01*
X16450000Y-11003000D01*
X16395000Y-11058000D01*
X16450000Y-11113000D01*
X16450000Y-11797000D02*
X16505000Y-11742000D01*
X16450000Y-11687000D01*
X16395000Y-11742000D01*
X16450000Y-11797000D01*
X16450000Y-12813000D02*
X16505000Y-12758000D01*
X16450000Y-12703000D01*
X16395000Y-12758000D01*
X16450000Y-12813000D01*
D10*
X260777Y-311484D02*
X260777Y-111484D01*
X260777Y-111484D02*
X308396Y-111484D01*
X308396Y-111484D02*
X336967Y-121008D01*
X336967Y-121008D02*
X356015Y-140055D01*
X356015Y-140055D02*
X365539Y-159103D01*
X365539Y-159103D02*
X375062Y-197198D01*
X375062Y-197198D02*
X375062Y-225769D01*
X375062Y-225769D02*
X365539Y-263865D01*
X365539Y-263865D02*
X356015Y-282912D01*
X356015Y-282912D02*
X336967Y-301960D01*
X336967Y-301960D02*
X308396Y-311484D01*
X308396Y-311484D02*
X260777Y-311484D01*
X460777Y-311484D02*
X460777Y-178150D01*
X460777Y-216246D02*
X470301Y-197198D01*
X470301Y-197198D02*
X479824Y-187674D01*
X479824Y-187674D02*
X498872Y-178150D01*
X498872Y-178150D02*
X517920Y-178150D01*
X584586Y-311484D02*
X584586Y-178150D01*
X584586Y-111484D02*
X575063Y-121008D01*
X575063Y-121008D02*
X584586Y-130531D01*
X584586Y-130531D02*
X594110Y-121008D01*
X594110Y-121008D02*
X584586Y-111484D01*
X584586Y-111484D02*
X584586Y-130531D01*
X708396Y-311484D02*
X689348Y-301960D01*
X689348Y-301960D02*
X679824Y-282912D01*
X679824Y-282912D02*
X679824Y-111484D01*
X813158Y-311484D02*
X794110Y-301960D01*
X794110Y-301960D02*
X784586Y-282912D01*
X784586Y-282912D02*
X784586Y-111484D01*
X1041729Y-311484D02*
X1041729Y-111484D01*
X1041729Y-111484D02*
X1108396Y-254341D01*
X1108396Y-254341D02*
X1175063Y-111484D01*
X1175063Y-111484D02*
X1175063Y-311484D01*
X1356015Y-311484D02*
X1356015Y-206722D01*
X1356015Y-206722D02*
X1346491Y-187674D01*
X1346491Y-187674D02*
X1327444Y-178150D01*
X1327444Y-178150D02*
X1289348Y-178150D01*
X1289348Y-178150D02*
X1270301Y-187674D01*
X1356015Y-301960D02*
X1336967Y-311484D01*
X1336967Y-311484D02*
X1289348Y-311484D01*
X1289348Y-311484D02*
X1270301Y-301960D01*
X1270301Y-301960D02*
X1260777Y-282912D01*
X1260777Y-282912D02*
X1260777Y-263865D01*
X1260777Y-263865D02*
X1270301Y-244817D01*
X1270301Y-244817D02*
X1289348Y-235293D01*
X1289348Y-235293D02*
X1336967Y-235293D01*
X1336967Y-235293D02*
X1356015Y-225769D01*
X1451253Y-178150D02*
X1451253Y-378150D01*
X1451253Y-187674D02*
X1470301Y-178150D01*
X1470301Y-178150D02*
X1508396Y-178150D01*
X1508396Y-178150D02*
X1527443Y-187674D01*
X1527443Y-187674D02*
X1536967Y-197198D01*
X1536967Y-197198D02*
X1546491Y-216246D01*
X1546491Y-216246D02*
X1546491Y-273389D01*
X1546491Y-273389D02*
X1536967Y-292436D01*
X1536967Y-292436D02*
X1527443Y-301960D01*
X1527443Y-301960D02*
X1508396Y-311484D01*
X1508396Y-311484D02*
X1470301Y-311484D01*
X1470301Y-311484D02*
X1451253Y-301960D01*
X1632205Y-292436D02*
X1641729Y-301960D01*
X1641729Y-301960D02*
X1632205Y-311484D01*
X1632205Y-311484D02*
X1622682Y-301960D01*
X1622682Y-301960D02*
X1632205Y-292436D01*
X1632205Y-292436D02*
X1632205Y-311484D01*
X1632205Y-187674D02*
X1641729Y-197198D01*
X1641729Y-197198D02*
X1632205Y-206722D01*
X1632205Y-206722D02*
X1622682Y-197198D01*
X1622682Y-197198D02*
X1632205Y-187674D01*
X1632205Y-187674D02*
X1632205Y-206722D01*
D11*
X-70000Y-605000D02*
X0Y-675000D01*
X0Y-605000D02*
X-70000Y-675000D01*
D10*
X298872Y-531484D02*
X317920Y-531484D01*
X317920Y-531484D02*
X336967Y-541008D01*
X336967Y-541008D02*
X346491Y-550531D01*
X346491Y-550531D02*
X356015Y-569579D01*
X356015Y-569579D02*
X365539Y-607674D01*
X365539Y-607674D02*
X365539Y-655293D01*
X365539Y-655293D02*
X356015Y-693389D01*
X356015Y-693389D02*
X346491Y-712436D01*
X346491Y-712436D02*
X336967Y-721960D01*
X336967Y-721960D02*
X317920Y-731484D01*
X317920Y-731484D02*
X298872Y-731484D01*
X298872Y-731484D02*
X279824Y-721960D01*
X279824Y-721960D02*
X270301Y-712436D01*
X270301Y-712436D02*
X260777Y-693389D01*
X260777Y-693389D02*
X251253Y-655293D01*
X251253Y-655293D02*
X251253Y-607674D01*
X251253Y-607674D02*
X260777Y-569579D01*
X260777Y-569579D02*
X270301Y-550531D01*
X270301Y-550531D02*
X279824Y-541008D01*
X279824Y-541008D02*
X298872Y-531484D01*
X451253Y-712436D02*
X460777Y-721960D01*
X460777Y-721960D02*
X451253Y-731484D01*
X451253Y-731484D02*
X441729Y-721960D01*
X441729Y-721960D02*
X451253Y-712436D01*
X451253Y-712436D02*
X451253Y-731484D01*
X527444Y-531484D02*
X660777Y-531484D01*
X660777Y-531484D02*
X575063Y-731484D01*
X775062Y-531484D02*
X794110Y-531484D01*
X794110Y-531484D02*
X813158Y-541008D01*
X813158Y-541008D02*
X822682Y-550531D01*
X822682Y-550531D02*
X832205Y-569579D01*
X832205Y-569579D02*
X841729Y-607674D01*
X841729Y-607674D02*
X841729Y-655293D01*
X841729Y-655293D02*
X832205Y-693389D01*
X832205Y-693389D02*
X822682Y-712436D01*
X822682Y-712436D02*
X813158Y-721960D01*
X813158Y-721960D02*
X794110Y-731484D01*
X794110Y-731484D02*
X775062Y-731484D01*
X775062Y-731484D02*
X756015Y-721960D01*
X756015Y-721960D02*
X746491Y-712436D01*
X746491Y-712436D02*
X736967Y-693389D01*
X736967Y-693389D02*
X727443Y-655293D01*
X727443Y-655293D02*
X727443Y-607674D01*
X727443Y-607674D02*
X736967Y-569579D01*
X736967Y-569579D02*
X746491Y-550531D01*
X746491Y-550531D02*
X756015Y-541008D01*
X756015Y-541008D02*
X775062Y-531484D01*
X965539Y-531484D02*
X984586Y-531484D01*
X984586Y-531484D02*
X1003634Y-541008D01*
X1003634Y-541008D02*
X1013158Y-550531D01*
X1013158Y-550531D02*
X1022682Y-569579D01*
X1022682Y-569579D02*
X1032205Y-607674D01*
X1032205Y-607674D02*
X1032205Y-655293D01*
X1032205Y-655293D02*
X1022682Y-693389D01*
X1022682Y-693389D02*
X1013158Y-712436D01*
X1013158Y-712436D02*
X1003634Y-721960D01*
X1003634Y-721960D02*
X984586Y-731484D01*
X984586Y-731484D02*
X965539Y-731484D01*
X965539Y-731484D02*
X946491Y-721960D01*
X946491Y-721960D02*
X936967Y-712436D01*
X936967Y-712436D02*
X927443Y-693389D01*
X927443Y-693389D02*
X917920Y-655293D01*
X917920Y-655293D02*
X917920Y-607674D01*
X917920Y-607674D02*
X927443Y-569579D01*
X927443Y-569579D02*
X936967Y-550531D01*
X936967Y-550531D02*
X946491Y-541008D01*
X946491Y-541008D02*
X965539Y-531484D01*
X1117920Y-731484D02*
X1117920Y-598150D01*
X1117920Y-617198D02*
X1127444Y-607674D01*
X1127444Y-607674D02*
X1146491Y-598150D01*
X1146491Y-598150D02*
X1175063Y-598150D01*
X1175063Y-598150D02*
X1194110Y-607674D01*
X1194110Y-607674D02*
X1203634Y-626722D01*
X1203634Y-626722D02*
X1203634Y-731484D01*
X1203634Y-626722D02*
X1213158Y-607674D01*
X1213158Y-607674D02*
X1232205Y-598150D01*
X1232205Y-598150D02*
X1260777Y-598150D01*
X1260777Y-598150D02*
X1279825Y-607674D01*
X1279825Y-607674D02*
X1289348Y-626722D01*
X1289348Y-626722D02*
X1289348Y-731484D01*
X1384586Y-731484D02*
X1384586Y-598150D01*
X1384586Y-617198D02*
X1394110Y-607674D01*
X1394110Y-607674D02*
X1413158Y-598150D01*
X1413158Y-598150D02*
X1441729Y-598150D01*
X1441729Y-598150D02*
X1460777Y-607674D01*
X1460777Y-607674D02*
X1470301Y-626722D01*
X1470301Y-626722D02*
X1470301Y-731484D01*
X1470301Y-626722D02*
X1479824Y-607674D01*
X1479824Y-607674D02*
X1498872Y-598150D01*
X1498872Y-598150D02*
X1527443Y-598150D01*
X1527443Y-598150D02*
X1546491Y-607674D01*
X1546491Y-607674D02*
X1556015Y-626722D01*
X1556015Y-626722D02*
X1556015Y-731484D01*
X1946491Y-521960D02*
X1775063Y-779103D01*
X2203634Y-531484D02*
X2222682Y-531484D01*
X2222682Y-531484D02*
X2241729Y-541008D01*
X2241729Y-541008D02*
X2251253Y-550531D01*
X2251253Y-550531D02*
X2260777Y-569579D01*
X2260777Y-569579D02*
X2270301Y-607674D01*
X2270301Y-607674D02*
X2270301Y-655293D01*
X2270301Y-655293D02*
X2260777Y-693389D01*
X2260777Y-693389D02*
X2251253Y-712436D01*
X2251253Y-712436D02*
X2241729Y-721960D01*
X2241729Y-721960D02*
X2222682Y-731484D01*
X2222682Y-731484D02*
X2203634Y-731484D01*
X2203634Y-731484D02*
X2184587Y-721960D01*
X2184587Y-721960D02*
X2175063Y-712436D01*
X2175063Y-712436D02*
X2165539Y-693389D01*
X2165539Y-693389D02*
X2156015Y-655293D01*
X2156015Y-655293D02*
X2156015Y-607674D01*
X2156015Y-607674D02*
X2165539Y-569579D01*
X2165539Y-569579D02*
X2175063Y-550531D01*
X2175063Y-550531D02*
X2184587Y-541008D01*
X2184587Y-541008D02*
X2203634Y-531484D01*
X2356015Y-712436D02*
X2365539Y-721960D01*
X2365539Y-721960D02*
X2356015Y-731484D01*
X2356015Y-731484D02*
X2346491Y-721960D01*
X2346491Y-721960D02*
X2356015Y-712436D01*
X2356015Y-712436D02*
X2356015Y-731484D01*
X2489348Y-531484D02*
X2508396Y-531484D01*
X2508396Y-531484D02*
X2527444Y-541008D01*
X2527444Y-541008D02*
X2536968Y-550531D01*
X2536968Y-550531D02*
X2546491Y-569579D01*
X2546491Y-569579D02*
X2556015Y-607674D01*
X2556015Y-607674D02*
X2556015Y-655293D01*
X2556015Y-655293D02*
X2546491Y-693389D01*
X2546491Y-693389D02*
X2536968Y-712436D01*
X2536968Y-712436D02*
X2527444Y-721960D01*
X2527444Y-721960D02*
X2508396Y-731484D01*
X2508396Y-731484D02*
X2489348Y-731484D01*
X2489348Y-731484D02*
X2470301Y-721960D01*
X2470301Y-721960D02*
X2460777Y-712436D01*
X2460777Y-712436D02*
X2451253Y-693389D01*
X2451253Y-693389D02*
X2441729Y-655293D01*
X2441729Y-655293D02*
X2441729Y-607674D01*
X2441729Y-607674D02*
X2451253Y-569579D01*
X2451253Y-569579D02*
X2460777Y-550531D01*
X2460777Y-550531D02*
X2470301Y-541008D01*
X2470301Y-541008D02*
X2489348Y-531484D01*
X2632206Y-550531D02*
X2641729Y-541008D01*
X2641729Y-541008D02*
X2660777Y-531484D01*
X2660777Y-531484D02*
X2708396Y-531484D01*
X2708396Y-531484D02*
X2727444Y-541008D01*
X2727444Y-541008D02*
X2736968Y-550531D01*
X2736968Y-550531D02*
X2746491Y-569579D01*
X2746491Y-569579D02*
X2746491Y-588627D01*
X2746491Y-588627D02*
X2736968Y-617198D01*
X2736968Y-617198D02*
X2622682Y-731484D01*
X2622682Y-731484D02*
X2746491Y-731484D01*
X2813158Y-531484D02*
X2946491Y-531484D01*
X2946491Y-531484D02*
X2860777Y-731484D01*
X3108396Y-531484D02*
X3070301Y-531484D01*
X3070301Y-531484D02*
X3051253Y-541008D01*
X3051253Y-541008D02*
X3041729Y-550531D01*
X3041729Y-550531D02*
X3022682Y-579103D01*
X3022682Y-579103D02*
X3013158Y-617198D01*
X3013158Y-617198D02*
X3013158Y-693389D01*
X3013158Y-693389D02*
X3022682Y-712436D01*
X3022682Y-712436D02*
X3032206Y-721960D01*
X3032206Y-721960D02*
X3051253Y-731484D01*
X3051253Y-731484D02*
X3089348Y-731484D01*
X3089348Y-731484D02*
X3108396Y-721960D01*
X3108396Y-721960D02*
X3117920Y-712436D01*
X3117920Y-712436D02*
X3127444Y-693389D01*
X3127444Y-693389D02*
X3127444Y-645770D01*
X3127444Y-645770D02*
X3117920Y-626722D01*
X3117920Y-626722D02*
X3108396Y-617198D01*
X3108396Y-617198D02*
X3089348Y-607674D01*
X3089348Y-607674D02*
X3051253Y-607674D01*
X3051253Y-607674D02*
X3032206Y-617198D01*
X3032206Y-617198D02*
X3022682Y-626722D01*
X3022682Y-626722D02*
X3013158Y-645770D01*
X3203634Y-531484D02*
X3203634Y-569579D01*
X3279825Y-531484D02*
X3279825Y-569579D01*
X3575063Y-807674D02*
X3565539Y-798150D01*
X3565539Y-798150D02*
X3546491Y-769579D01*
X3546491Y-769579D02*
X3536968Y-750531D01*
X3536968Y-750531D02*
X3527444Y-721960D01*
X3527444Y-721960D02*
X3517920Y-674341D01*
X3517920Y-674341D02*
X3517920Y-636246D01*
X3517920Y-636246D02*
X3527444Y-588627D01*
X3527444Y-588627D02*
X3536968Y-560055D01*
X3536968Y-560055D02*
X3546491Y-541008D01*
X3546491Y-541008D02*
X3565539Y-512436D01*
X3565539Y-512436D02*
X3575063Y-502912D01*
X3736968Y-598150D02*
X3736968Y-731484D01*
X3689348Y-521960D02*
X3641729Y-664817D01*
X3641729Y-664817D02*
X3765539Y-664817D01*
X3994110Y-731484D02*
X3994110Y-531484D01*
X4079825Y-731484D02*
X4079825Y-626722D01*
X4079825Y-626722D02*
X4070301Y-607674D01*
X4070301Y-607674D02*
X4051253Y-598150D01*
X4051253Y-598150D02*
X4022682Y-598150D01*
X4022682Y-598150D02*
X4003634Y-607674D01*
X4003634Y-607674D02*
X3994110Y-617198D01*
X4203634Y-731484D02*
X4184587Y-721960D01*
X4184587Y-721960D02*
X4175063Y-712436D01*
X4175063Y-712436D02*
X4165539Y-693389D01*
X4165539Y-693389D02*
X4165539Y-636246D01*
X4165539Y-636246D02*
X4175063Y-617198D01*
X4175063Y-617198D02*
X4184587Y-607674D01*
X4184587Y-607674D02*
X4203634Y-598150D01*
X4203634Y-598150D02*
X4232206Y-598150D01*
X4232206Y-598150D02*
X4251253Y-607674D01*
X4251253Y-607674D02*
X4260777Y-617198D01*
X4260777Y-617198D02*
X4270301Y-636246D01*
X4270301Y-636246D02*
X4270301Y-693389D01*
X4270301Y-693389D02*
X4260777Y-712436D01*
X4260777Y-712436D02*
X4251253Y-721960D01*
X4251253Y-721960D02*
X4232206Y-731484D01*
X4232206Y-731484D02*
X4203634Y-731484D01*
X4384587Y-731484D02*
X4365539Y-721960D01*
X4365539Y-721960D02*
X4356015Y-702912D01*
X4356015Y-702912D02*
X4356015Y-531484D01*
X4536968Y-721960D02*
X4517920Y-731484D01*
X4517920Y-731484D02*
X4479825Y-731484D01*
X4479825Y-731484D02*
X4460777Y-721960D01*
X4460777Y-721960D02*
X4451253Y-702912D01*
X4451253Y-702912D02*
X4451253Y-626722D01*
X4451253Y-626722D02*
X4460777Y-607674D01*
X4460777Y-607674D02*
X4479825Y-598150D01*
X4479825Y-598150D02*
X4517920Y-598150D01*
X4517920Y-598150D02*
X4536968Y-607674D01*
X4536968Y-607674D02*
X4546492Y-626722D01*
X4546492Y-626722D02*
X4546492Y-645770D01*
X4546492Y-645770D02*
X4451253Y-664817D01*
X4622682Y-721960D02*
X4641730Y-731484D01*
X4641730Y-731484D02*
X4679825Y-731484D01*
X4679825Y-731484D02*
X4698873Y-721960D01*
X4698873Y-721960D02*
X4708396Y-702912D01*
X4708396Y-702912D02*
X4708396Y-693389D01*
X4708396Y-693389D02*
X4698873Y-674341D01*
X4698873Y-674341D02*
X4679825Y-664817D01*
X4679825Y-664817D02*
X4651253Y-664817D01*
X4651253Y-664817D02*
X4632206Y-655293D01*
X4632206Y-655293D02*
X4622682Y-636246D01*
X4622682Y-636246D02*
X4622682Y-626722D01*
X4622682Y-626722D02*
X4632206Y-607674D01*
X4632206Y-607674D02*
X4651253Y-598150D01*
X4651253Y-598150D02*
X4679825Y-598150D01*
X4679825Y-598150D02*
X4698873Y-607674D01*
X4775063Y-807674D02*
X4784587Y-798150D01*
X4784587Y-798150D02*
X4803634Y-769579D01*
X4803634Y-769579D02*
X4813158Y-750531D01*
X4813158Y-750531D02*
X4822682Y-721960D01*
X4822682Y-721960D02*
X4832206Y-674341D01*
X4832206Y-674341D02*
X4832206Y-636246D01*
X4832206Y-636246D02*
X4822682Y-588627D01*
X4822682Y-588627D02*
X4813158Y-560055D01*
X4813158Y-560055D02*
X4803634Y-541008D01*
X4803634Y-541008D02*
X4784587Y-512436D01*
X4784587Y-512436D02*
X4775063Y-502912D01*
D11*
X0Y-904000D02*
G75*
G02*
X-80000Y-904000I-40000J0D01*
G01*
X-80000Y-904000D02*
G75*
G02*
X0Y-904000I40000J0D01*
G01*
D10*
X298872Y-795484D02*
X317920Y-795484D01*
X317920Y-795484D02*
X336967Y-805008D01*
X336967Y-805008D02*
X346491Y-814531D01*
X346491Y-814531D02*
X356015Y-833579D01*
X356015Y-833579D02*
X365539Y-871674D01*
X365539Y-871674D02*
X365539Y-919293D01*
X365539Y-919293D02*
X356015Y-957388D01*
X356015Y-957388D02*
X346491Y-976436D01*
X346491Y-976436D02*
X336967Y-985960D01*
X336967Y-985960D02*
X317920Y-995484D01*
X317920Y-995484D02*
X298872Y-995484D01*
X298872Y-995484D02*
X279824Y-985960D01*
X279824Y-985960D02*
X270301Y-976436D01*
X270301Y-976436D02*
X260777Y-957388D01*
X260777Y-957388D02*
X251253Y-919293D01*
X251253Y-919293D02*
X251253Y-871674D01*
X251253Y-871674D02*
X260777Y-833579D01*
X260777Y-833579D02*
X270301Y-814531D01*
X270301Y-814531D02*
X279824Y-805008D01*
X279824Y-805008D02*
X298872Y-795484D01*
X451253Y-976436D02*
X460777Y-985960D01*
X460777Y-985960D02*
X451253Y-995484D01*
X451253Y-995484D02*
X441729Y-985960D01*
X441729Y-985960D02*
X451253Y-976436D01*
X451253Y-976436D02*
X451253Y-995484D01*
X575063Y-881198D02*
X556015Y-871674D01*
X556015Y-871674D02*
X546491Y-862150D01*
X546491Y-862150D02*
X536967Y-843103D01*
X536967Y-843103D02*
X536967Y-833579D01*
X536967Y-833579D02*
X546491Y-814531D01*
X546491Y-814531D02*
X556015Y-805008D01*
X556015Y-805008D02*
X575063Y-795484D01*
X575063Y-795484D02*
X613158Y-795484D01*
X613158Y-795484D02*
X632205Y-805008D01*
X632205Y-805008D02*
X641729Y-814531D01*
X641729Y-814531D02*
X651253Y-833579D01*
X651253Y-833579D02*
X651253Y-843103D01*
X651253Y-843103D02*
X641729Y-862150D01*
X641729Y-862150D02*
X632205Y-871674D01*
X632205Y-871674D02*
X613158Y-881198D01*
X613158Y-881198D02*
X575063Y-881198D01*
X575063Y-881198D02*
X556015Y-890722D01*
X556015Y-890722D02*
X546491Y-900246D01*
X546491Y-900246D02*
X536967Y-919293D01*
X536967Y-919293D02*
X536967Y-957388D01*
X536967Y-957388D02*
X546491Y-976436D01*
X546491Y-976436D02*
X556015Y-985960D01*
X556015Y-985960D02*
X575063Y-995484D01*
X575063Y-995484D02*
X613158Y-995484D01*
X613158Y-995484D02*
X632205Y-985960D01*
X632205Y-985960D02*
X641729Y-976436D01*
X641729Y-976436D02*
X651253Y-957388D01*
X651253Y-957388D02*
X651253Y-919293D01*
X651253Y-919293D02*
X641729Y-900246D01*
X641729Y-900246D02*
X632205Y-890722D01*
X632205Y-890722D02*
X613158Y-881198D01*
X775062Y-795484D02*
X794110Y-795484D01*
X794110Y-795484D02*
X813158Y-805008D01*
X813158Y-805008D02*
X822682Y-814531D01*
X822682Y-814531D02*
X832205Y-833579D01*
X832205Y-833579D02*
X841729Y-871674D01*
X841729Y-871674D02*
X841729Y-919293D01*
X841729Y-919293D02*
X832205Y-957388D01*
X832205Y-957388D02*
X822682Y-976436D01*
X822682Y-976436D02*
X813158Y-985960D01*
X813158Y-985960D02*
X794110Y-995484D01*
X794110Y-995484D02*
X775062Y-995484D01*
X775062Y-995484D02*
X756015Y-985960D01*
X756015Y-985960D02*
X746491Y-976436D01*
X746491Y-976436D02*
X736967Y-957388D01*
X736967Y-957388D02*
X727443Y-919293D01*
X727443Y-919293D02*
X727443Y-871674D01*
X727443Y-871674D02*
X736967Y-833579D01*
X736967Y-833579D02*
X746491Y-814531D01*
X746491Y-814531D02*
X756015Y-805008D01*
X756015Y-805008D02*
X775062Y-795484D01*
X965539Y-795484D02*
X984586Y-795484D01*
X984586Y-795484D02*
X1003634Y-805008D01*
X1003634Y-805008D02*
X1013158Y-814531D01*
X1013158Y-814531D02*
X1022682Y-833579D01*
X1022682Y-833579D02*
X1032205Y-871674D01*
X1032205Y-871674D02*
X1032205Y-919293D01*
X1032205Y-919293D02*
X1022682Y-957388D01*
X1022682Y-957388D02*
X1013158Y-976436D01*
X1013158Y-976436D02*
X1003634Y-985960D01*
X1003634Y-985960D02*
X984586Y-995484D01*
X984586Y-995484D02*
X965539Y-995484D01*
X965539Y-995484D02*
X946491Y-985960D01*
X946491Y-985960D02*
X936967Y-976436D01*
X936967Y-976436D02*
X927443Y-957388D01*
X927443Y-957388D02*
X917920Y-919293D01*
X917920Y-919293D02*
X917920Y-871674D01*
X917920Y-871674D02*
X927443Y-833579D01*
X927443Y-833579D02*
X936967Y-814531D01*
X936967Y-814531D02*
X946491Y-805008D01*
X946491Y-805008D02*
X965539Y-795484D01*
X1117920Y-995484D02*
X1117920Y-862150D01*
X1117920Y-881198D02*
X1127444Y-871674D01*
X1127444Y-871674D02*
X1146491Y-862150D01*
X1146491Y-862150D02*
X1175063Y-862150D01*
X1175063Y-862150D02*
X1194110Y-871674D01*
X1194110Y-871674D02*
X1203634Y-890722D01*
X1203634Y-890722D02*
X1203634Y-995484D01*
X1203634Y-890722D02*
X1213158Y-871674D01*
X1213158Y-871674D02*
X1232205Y-862150D01*
X1232205Y-862150D02*
X1260777Y-862150D01*
X1260777Y-862150D02*
X1279825Y-871674D01*
X1279825Y-871674D02*
X1289348Y-890722D01*
X1289348Y-890722D02*
X1289348Y-995484D01*
X1384586Y-995484D02*
X1384586Y-862150D01*
X1384586Y-881198D02*
X1394110Y-871674D01*
X1394110Y-871674D02*
X1413158Y-862150D01*
X1413158Y-862150D02*
X1441729Y-862150D01*
X1441729Y-862150D02*
X1460777Y-871674D01*
X1460777Y-871674D02*
X1470301Y-890722D01*
X1470301Y-890722D02*
X1470301Y-995484D01*
X1470301Y-890722D02*
X1479824Y-871674D01*
X1479824Y-871674D02*
X1498872Y-862150D01*
X1498872Y-862150D02*
X1527443Y-862150D01*
X1527443Y-862150D02*
X1546491Y-871674D01*
X1546491Y-871674D02*
X1556015Y-890722D01*
X1556015Y-890722D02*
X1556015Y-995484D01*
X1946491Y-785960D02*
X1775063Y-1043103D01*
X2203634Y-795484D02*
X2222682Y-795484D01*
X2222682Y-795484D02*
X2241729Y-805008D01*
X2241729Y-805008D02*
X2251253Y-814531D01*
X2251253Y-814531D02*
X2260777Y-833579D01*
X2260777Y-833579D02*
X2270301Y-871674D01*
X2270301Y-871674D02*
X2270301Y-919293D01*
X2270301Y-919293D02*
X2260777Y-957388D01*
X2260777Y-957388D02*
X2251253Y-976436D01*
X2251253Y-976436D02*
X2241729Y-985960D01*
X2241729Y-985960D02*
X2222682Y-995484D01*
X2222682Y-995484D02*
X2203634Y-995484D01*
X2203634Y-995484D02*
X2184587Y-985960D01*
X2184587Y-985960D02*
X2175063Y-976436D01*
X2175063Y-976436D02*
X2165539Y-957388D01*
X2165539Y-957388D02*
X2156015Y-919293D01*
X2156015Y-919293D02*
X2156015Y-871674D01*
X2156015Y-871674D02*
X2165539Y-833579D01*
X2165539Y-833579D02*
X2175063Y-814531D01*
X2175063Y-814531D02*
X2184587Y-805008D01*
X2184587Y-805008D02*
X2203634Y-795484D01*
X2356015Y-976436D02*
X2365539Y-985960D01*
X2365539Y-985960D02*
X2356015Y-995484D01*
X2356015Y-995484D02*
X2346491Y-985960D01*
X2346491Y-985960D02*
X2356015Y-976436D01*
X2356015Y-976436D02*
X2356015Y-995484D01*
X2489348Y-795484D02*
X2508396Y-795484D01*
X2508396Y-795484D02*
X2527444Y-805008D01*
X2527444Y-805008D02*
X2536968Y-814531D01*
X2536968Y-814531D02*
X2546491Y-833579D01*
X2546491Y-833579D02*
X2556015Y-871674D01*
X2556015Y-871674D02*
X2556015Y-919293D01*
X2556015Y-919293D02*
X2546491Y-957388D01*
X2546491Y-957388D02*
X2536968Y-976436D01*
X2536968Y-976436D02*
X2527444Y-985960D01*
X2527444Y-985960D02*
X2508396Y-995484D01*
X2508396Y-995484D02*
X2489348Y-995484D01*
X2489348Y-995484D02*
X2470301Y-985960D01*
X2470301Y-985960D02*
X2460777Y-976436D01*
X2460777Y-976436D02*
X2451253Y-957388D01*
X2451253Y-957388D02*
X2441729Y-919293D01*
X2441729Y-919293D02*
X2441729Y-871674D01*
X2441729Y-871674D02*
X2451253Y-833579D01*
X2451253Y-833579D02*
X2460777Y-814531D01*
X2460777Y-814531D02*
X2470301Y-805008D01*
X2470301Y-805008D02*
X2489348Y-795484D01*
X2622682Y-795484D02*
X2746491Y-795484D01*
X2746491Y-795484D02*
X2679825Y-871674D01*
X2679825Y-871674D02*
X2708396Y-871674D01*
X2708396Y-871674D02*
X2727444Y-881198D01*
X2727444Y-881198D02*
X2736968Y-890722D01*
X2736968Y-890722D02*
X2746491Y-909769D01*
X2746491Y-909769D02*
X2746491Y-957388D01*
X2746491Y-957388D02*
X2736968Y-976436D01*
X2736968Y-976436D02*
X2727444Y-985960D01*
X2727444Y-985960D02*
X2708396Y-995484D01*
X2708396Y-995484D02*
X2651253Y-995484D01*
X2651253Y-995484D02*
X2632206Y-985960D01*
X2632206Y-985960D02*
X2622682Y-976436D01*
X2936967Y-995484D02*
X2822682Y-995484D01*
X2879825Y-995484D02*
X2879825Y-795484D01*
X2879825Y-795484D02*
X2860777Y-824055D01*
X2860777Y-824055D02*
X2841729Y-843103D01*
X2841729Y-843103D02*
X2822682Y-852627D01*
X3117920Y-795484D02*
X3022682Y-795484D01*
X3022682Y-795484D02*
X3013158Y-890722D01*
X3013158Y-890722D02*
X3022682Y-881198D01*
X3022682Y-881198D02*
X3041729Y-871674D01*
X3041729Y-871674D02*
X3089348Y-871674D01*
X3089348Y-871674D02*
X3108396Y-881198D01*
X3108396Y-881198D02*
X3117920Y-890722D01*
X3117920Y-890722D02*
X3127444Y-909769D01*
X3127444Y-909769D02*
X3127444Y-957388D01*
X3127444Y-957388D02*
X3117920Y-976436D01*
X3117920Y-976436D02*
X3108396Y-985960D01*
X3108396Y-985960D02*
X3089348Y-995484D01*
X3089348Y-995484D02*
X3041729Y-995484D01*
X3041729Y-995484D02*
X3022682Y-985960D01*
X3022682Y-985960D02*
X3013158Y-976436D01*
X3203634Y-795484D02*
X3203634Y-833579D01*
X3279825Y-795484D02*
X3279825Y-833579D01*
X3575063Y-1071674D02*
X3565539Y-1062150D01*
X3565539Y-1062150D02*
X3546491Y-1033579D01*
X3546491Y-1033579D02*
X3536968Y-1014531D01*
X3536968Y-1014531D02*
X3527444Y-985960D01*
X3527444Y-985960D02*
X3517920Y-938341D01*
X3517920Y-938341D02*
X3517920Y-900246D01*
X3517920Y-900246D02*
X3527444Y-852627D01*
X3527444Y-852627D02*
X3536968Y-824055D01*
X3536968Y-824055D02*
X3546491Y-805008D01*
X3546491Y-805008D02*
X3565539Y-776436D01*
X3565539Y-776436D02*
X3575063Y-766912D01*
X3641729Y-814531D02*
X3651253Y-805008D01*
X3651253Y-805008D02*
X3670301Y-795484D01*
X3670301Y-795484D02*
X3717920Y-795484D01*
X3717920Y-795484D02*
X3736968Y-805008D01*
X3736968Y-805008D02*
X3746491Y-814531D01*
X3746491Y-814531D02*
X3756015Y-833579D01*
X3756015Y-833579D02*
X3756015Y-852627D01*
X3756015Y-852627D02*
X3746491Y-881198D01*
X3746491Y-881198D02*
X3632206Y-995484D01*
X3632206Y-995484D02*
X3756015Y-995484D01*
X3994110Y-995484D02*
X3994110Y-795484D01*
X4079825Y-995484D02*
X4079825Y-890722D01*
X4079825Y-890722D02*
X4070301Y-871674D01*
X4070301Y-871674D02*
X4051253Y-862150D01*
X4051253Y-862150D02*
X4022682Y-862150D01*
X4022682Y-862150D02*
X4003634Y-871674D01*
X4003634Y-871674D02*
X3994110Y-881198D01*
X4203634Y-995484D02*
X4184587Y-985960D01*
X4184587Y-985960D02*
X4175063Y-976436D01*
X4175063Y-976436D02*
X4165539Y-957388D01*
X4165539Y-957388D02*
X4165539Y-900246D01*
X4165539Y-900246D02*
X4175063Y-881198D01*
X4175063Y-881198D02*
X4184587Y-871674D01*
X4184587Y-871674D02*
X4203634Y-862150D01*
X4203634Y-862150D02*
X4232206Y-862150D01*
X4232206Y-862150D02*
X4251253Y-871674D01*
X4251253Y-871674D02*
X4260777Y-881198D01*
X4260777Y-881198D02*
X4270301Y-900246D01*
X4270301Y-900246D02*
X4270301Y-957388D01*
X4270301Y-957388D02*
X4260777Y-976436D01*
X4260777Y-976436D02*
X4251253Y-985960D01*
X4251253Y-985960D02*
X4232206Y-995484D01*
X4232206Y-995484D02*
X4203634Y-995484D01*
X4384587Y-995484D02*
X4365539Y-985960D01*
X4365539Y-985960D02*
X4356015Y-966912D01*
X4356015Y-966912D02*
X4356015Y-795484D01*
X4536968Y-985960D02*
X4517920Y-995484D01*
X4517920Y-995484D02*
X4479825Y-995484D01*
X4479825Y-995484D02*
X4460777Y-985960D01*
X4460777Y-985960D02*
X4451253Y-966912D01*
X4451253Y-966912D02*
X4451253Y-890722D01*
X4451253Y-890722D02*
X4460777Y-871674D01*
X4460777Y-871674D02*
X4479825Y-862150D01*
X4479825Y-862150D02*
X4517920Y-862150D01*
X4517920Y-862150D02*
X4536968Y-871674D01*
X4536968Y-871674D02*
X4546492Y-890722D01*
X4546492Y-890722D02*
X4546492Y-909769D01*
X4546492Y-909769D02*
X4451253Y-928817D01*
X4622682Y-985960D02*
X4641730Y-995484D01*
X4641730Y-995484D02*
X4679825Y-995484D01*
X4679825Y-995484D02*
X4698873Y-985960D01*
X4698873Y-985960D02*
X4708396Y-966912D01*
X4708396Y-966912D02*
X4708396Y-957388D01*
X4708396Y-957388D02*
X4698873Y-938341D01*
X4698873Y-938341D02*
X4679825Y-928817D01*
X4679825Y-928817D02*
X4651253Y-928817D01*
X4651253Y-928817D02*
X4632206Y-919293D01*
X4632206Y-919293D02*
X4622682Y-900246D01*
X4622682Y-900246D02*
X4622682Y-890722D01*
X4622682Y-890722D02*
X4632206Y-871674D01*
X4632206Y-871674D02*
X4651253Y-862150D01*
X4651253Y-862150D02*
X4679825Y-862150D01*
X4679825Y-862150D02*
X4698873Y-871674D01*
X4775063Y-1071674D02*
X4784587Y-1062150D01*
X4784587Y-1062150D02*
X4803634Y-1033579D01*
X4803634Y-1033579D02*
X4813158Y-1014531D01*
X4813158Y-1014531D02*
X4822682Y-985960D01*
X4822682Y-985960D02*
X4832206Y-938341D01*
X4832206Y-938341D02*
X4832206Y-900246D01*
X4832206Y-900246D02*
X4822682Y-852627D01*
X4822682Y-852627D02*
X4813158Y-824055D01*
X4813158Y-824055D02*
X4803634Y-805008D01*
X4803634Y-805008D02*
X4784587Y-776436D01*
X4784587Y-776436D02*
X4775063Y-766912D01*
D11*
X-45000Y-1123000D02*
X-45000Y-1213000D01*
X-90000Y-1168000D02*
X0Y-1168000D01*
D10*
X298872Y-1059484D02*
X317920Y-1059484D01*
X317920Y-1059484D02*
X336967Y-1069008D01*
X336967Y-1069008D02*
X346491Y-1078531D01*
X346491Y-1078531D02*
X356015Y-1097579D01*
X356015Y-1097579D02*
X365539Y-1135674D01*
X365539Y-1135674D02*
X365539Y-1183293D01*
X365539Y-1183293D02*
X356015Y-1221389D01*
X356015Y-1221389D02*
X346491Y-1240436D01*
X346491Y-1240436D02*
X336967Y-1249960D01*
X336967Y-1249960D02*
X317920Y-1259484D01*
X317920Y-1259484D02*
X298872Y-1259484D01*
X298872Y-1259484D02*
X279824Y-1249960D01*
X279824Y-1249960D02*
X270301Y-1240436D01*
X270301Y-1240436D02*
X260777Y-1221389D01*
X260777Y-1221389D02*
X251253Y-1183293D01*
X251253Y-1183293D02*
X251253Y-1135674D01*
X251253Y-1135674D02*
X260777Y-1097579D01*
X260777Y-1097579D02*
X270301Y-1078531D01*
X270301Y-1078531D02*
X279824Y-1069008D01*
X279824Y-1069008D02*
X298872Y-1059484D01*
X451253Y-1240436D02*
X460777Y-1249960D01*
X460777Y-1249960D02*
X451253Y-1259484D01*
X451253Y-1259484D02*
X441729Y-1249960D01*
X441729Y-1249960D02*
X451253Y-1240436D01*
X451253Y-1240436D02*
X451253Y-1259484D01*
X556015Y-1259484D02*
X594110Y-1259484D01*
X594110Y-1259484D02*
X613158Y-1249960D01*
X613158Y-1249960D02*
X622682Y-1240436D01*
X622682Y-1240436D02*
X641729Y-1211865D01*
X641729Y-1211865D02*
X651253Y-1173770D01*
X651253Y-1173770D02*
X651253Y-1097579D01*
X651253Y-1097579D02*
X641729Y-1078531D01*
X641729Y-1078531D02*
X632205Y-1069008D01*
X632205Y-1069008D02*
X613158Y-1059484D01*
X613158Y-1059484D02*
X575063Y-1059484D01*
X575063Y-1059484D02*
X556015Y-1069008D01*
X556015Y-1069008D02*
X546491Y-1078531D01*
X546491Y-1078531D02*
X536967Y-1097579D01*
X536967Y-1097579D02*
X536967Y-1145198D01*
X536967Y-1145198D02*
X546491Y-1164246D01*
X546491Y-1164246D02*
X556015Y-1173770D01*
X556015Y-1173770D02*
X575063Y-1183293D01*
X575063Y-1183293D02*
X613158Y-1183293D01*
X613158Y-1183293D02*
X632205Y-1173770D01*
X632205Y-1173770D02*
X641729Y-1164246D01*
X641729Y-1164246D02*
X651253Y-1145198D01*
X775062Y-1059484D02*
X794110Y-1059484D01*
X794110Y-1059484D02*
X813158Y-1069008D01*
X813158Y-1069008D02*
X822682Y-1078531D01*
X822682Y-1078531D02*
X832205Y-1097579D01*
X832205Y-1097579D02*
X841729Y-1135674D01*
X841729Y-1135674D02*
X841729Y-1183293D01*
X841729Y-1183293D02*
X832205Y-1221389D01*
X832205Y-1221389D02*
X822682Y-1240436D01*
X822682Y-1240436D02*
X813158Y-1249960D01*
X813158Y-1249960D02*
X794110Y-1259484D01*
X794110Y-1259484D02*
X775062Y-1259484D01*
X775062Y-1259484D02*
X756015Y-1249960D01*
X756015Y-1249960D02*
X746491Y-1240436D01*
X746491Y-1240436D02*
X736967Y-1221389D01*
X736967Y-1221389D02*
X727443Y-1183293D01*
X727443Y-1183293D02*
X727443Y-1135674D01*
X727443Y-1135674D02*
X736967Y-1097579D01*
X736967Y-1097579D02*
X746491Y-1078531D01*
X746491Y-1078531D02*
X756015Y-1069008D01*
X756015Y-1069008D02*
X775062Y-1059484D01*
X965539Y-1059484D02*
X984586Y-1059484D01*
X984586Y-1059484D02*
X1003634Y-1069008D01*
X1003634Y-1069008D02*
X1013158Y-1078531D01*
X1013158Y-1078531D02*
X1022682Y-1097579D01*
X1022682Y-1097579D02*
X1032205Y-1135674D01*
X1032205Y-1135674D02*
X1032205Y-1183293D01*
X1032205Y-1183293D02*
X1022682Y-1221389D01*
X1022682Y-1221389D02*
X1013158Y-1240436D01*
X1013158Y-1240436D02*
X1003634Y-1249960D01*
X1003634Y-1249960D02*
X984586Y-1259484D01*
X984586Y-1259484D02*
X965539Y-1259484D01*
X965539Y-1259484D02*
X946491Y-1249960D01*
X946491Y-1249960D02*
X936967Y-1240436D01*
X936967Y-1240436D02*
X927443Y-1221389D01*
X927443Y-1221389D02*
X917920Y-1183293D01*
X917920Y-1183293D02*
X917920Y-1135674D01*
X917920Y-1135674D02*
X927443Y-1097579D01*
X927443Y-1097579D02*
X936967Y-1078531D01*
X936967Y-1078531D02*
X946491Y-1069008D01*
X946491Y-1069008D02*
X965539Y-1059484D01*
X1117920Y-1259484D02*
X1117920Y-1126150D01*
X1117920Y-1145198D02*
X1127444Y-1135674D01*
X1127444Y-1135674D02*
X1146491Y-1126150D01*
X1146491Y-1126150D02*
X1175063Y-1126150D01*
X1175063Y-1126150D02*
X1194110Y-1135674D01*
X1194110Y-1135674D02*
X1203634Y-1154722D01*
X1203634Y-1154722D02*
X1203634Y-1259484D01*
X1203634Y-1154722D02*
X1213158Y-1135674D01*
X1213158Y-1135674D02*
X1232205Y-1126150D01*
X1232205Y-1126150D02*
X1260777Y-1126150D01*
X1260777Y-1126150D02*
X1279825Y-1135674D01*
X1279825Y-1135674D02*
X1289348Y-1154722D01*
X1289348Y-1154722D02*
X1289348Y-1259484D01*
X1384586Y-1259484D02*
X1384586Y-1126150D01*
X1384586Y-1145198D02*
X1394110Y-1135674D01*
X1394110Y-1135674D02*
X1413158Y-1126150D01*
X1413158Y-1126150D02*
X1441729Y-1126150D01*
X1441729Y-1126150D02*
X1460777Y-1135674D01*
X1460777Y-1135674D02*
X1470301Y-1154722D01*
X1470301Y-1154722D02*
X1470301Y-1259484D01*
X1470301Y-1154722D02*
X1479824Y-1135674D01*
X1479824Y-1135674D02*
X1498872Y-1126150D01*
X1498872Y-1126150D02*
X1527443Y-1126150D01*
X1527443Y-1126150D02*
X1546491Y-1135674D01*
X1546491Y-1135674D02*
X1556015Y-1154722D01*
X1556015Y-1154722D02*
X1556015Y-1259484D01*
X1946491Y-1049960D02*
X1775063Y-1307103D01*
X2203634Y-1059484D02*
X2222682Y-1059484D01*
X2222682Y-1059484D02*
X2241729Y-1069008D01*
X2241729Y-1069008D02*
X2251253Y-1078531D01*
X2251253Y-1078531D02*
X2260777Y-1097579D01*
X2260777Y-1097579D02*
X2270301Y-1135674D01*
X2270301Y-1135674D02*
X2270301Y-1183293D01*
X2270301Y-1183293D02*
X2260777Y-1221389D01*
X2260777Y-1221389D02*
X2251253Y-1240436D01*
X2251253Y-1240436D02*
X2241729Y-1249960D01*
X2241729Y-1249960D02*
X2222682Y-1259484D01*
X2222682Y-1259484D02*
X2203634Y-1259484D01*
X2203634Y-1259484D02*
X2184587Y-1249960D01*
X2184587Y-1249960D02*
X2175063Y-1240436D01*
X2175063Y-1240436D02*
X2165539Y-1221389D01*
X2165539Y-1221389D02*
X2156015Y-1183293D01*
X2156015Y-1183293D02*
X2156015Y-1135674D01*
X2156015Y-1135674D02*
X2165539Y-1097579D01*
X2165539Y-1097579D02*
X2175063Y-1078531D01*
X2175063Y-1078531D02*
X2184587Y-1069008D01*
X2184587Y-1069008D02*
X2203634Y-1059484D01*
X2356015Y-1240436D02*
X2365539Y-1249960D01*
X2365539Y-1249960D02*
X2356015Y-1259484D01*
X2356015Y-1259484D02*
X2346491Y-1249960D01*
X2346491Y-1249960D02*
X2356015Y-1240436D01*
X2356015Y-1240436D02*
X2356015Y-1259484D01*
X2489348Y-1059484D02*
X2508396Y-1059484D01*
X2508396Y-1059484D02*
X2527444Y-1069008D01*
X2527444Y-1069008D02*
X2536968Y-1078531D01*
X2536968Y-1078531D02*
X2546491Y-1097579D01*
X2546491Y-1097579D02*
X2556015Y-1135674D01*
X2556015Y-1135674D02*
X2556015Y-1183293D01*
X2556015Y-1183293D02*
X2546491Y-1221389D01*
X2546491Y-1221389D02*
X2536968Y-1240436D01*
X2536968Y-1240436D02*
X2527444Y-1249960D01*
X2527444Y-1249960D02*
X2508396Y-1259484D01*
X2508396Y-1259484D02*
X2489348Y-1259484D01*
X2489348Y-1259484D02*
X2470301Y-1249960D01*
X2470301Y-1249960D02*
X2460777Y-1240436D01*
X2460777Y-1240436D02*
X2451253Y-1221389D01*
X2451253Y-1221389D02*
X2441729Y-1183293D01*
X2441729Y-1183293D02*
X2441729Y-1135674D01*
X2441729Y-1135674D02*
X2451253Y-1097579D01*
X2451253Y-1097579D02*
X2460777Y-1078531D01*
X2460777Y-1078531D02*
X2470301Y-1069008D01*
X2470301Y-1069008D02*
X2489348Y-1059484D01*
X2622682Y-1059484D02*
X2746491Y-1059484D01*
X2746491Y-1059484D02*
X2679825Y-1135674D01*
X2679825Y-1135674D02*
X2708396Y-1135674D01*
X2708396Y-1135674D02*
X2727444Y-1145198D01*
X2727444Y-1145198D02*
X2736968Y-1154722D01*
X2736968Y-1154722D02*
X2746491Y-1173770D01*
X2746491Y-1173770D02*
X2746491Y-1221389D01*
X2746491Y-1221389D02*
X2736968Y-1240436D01*
X2736968Y-1240436D02*
X2727444Y-1249960D01*
X2727444Y-1249960D02*
X2708396Y-1259484D01*
X2708396Y-1259484D02*
X2651253Y-1259484D01*
X2651253Y-1259484D02*
X2632206Y-1249960D01*
X2632206Y-1249960D02*
X2622682Y-1240436D01*
X2927444Y-1059484D02*
X2832206Y-1059484D01*
X2832206Y-1059484D02*
X2822682Y-1154722D01*
X2822682Y-1154722D02*
X2832206Y-1145198D01*
X2832206Y-1145198D02*
X2851253Y-1135674D01*
X2851253Y-1135674D02*
X2898872Y-1135674D01*
X2898872Y-1135674D02*
X2917920Y-1145198D01*
X2917920Y-1145198D02*
X2927444Y-1154722D01*
X2927444Y-1154722D02*
X2936967Y-1173770D01*
X2936967Y-1173770D02*
X2936967Y-1221389D01*
X2936967Y-1221389D02*
X2927444Y-1240436D01*
X2927444Y-1240436D02*
X2917920Y-1249960D01*
X2917920Y-1249960D02*
X2898872Y-1259484D01*
X2898872Y-1259484D02*
X2851253Y-1259484D01*
X2851253Y-1259484D02*
X2832206Y-1249960D01*
X2832206Y-1249960D02*
X2822682Y-1240436D01*
X3108396Y-1126150D02*
X3108396Y-1259484D01*
X3060777Y-1049960D02*
X3013158Y-1192817D01*
X3013158Y-1192817D02*
X3136967Y-1192817D01*
X3203634Y-1059484D02*
X3203634Y-1097579D01*
X3279825Y-1059484D02*
X3279825Y-1097579D01*
X3575063Y-1335674D02*
X3565539Y-1326150D01*
X3565539Y-1326150D02*
X3546491Y-1297579D01*
X3546491Y-1297579D02*
X3536968Y-1278531D01*
X3536968Y-1278531D02*
X3527444Y-1249960D01*
X3527444Y-1249960D02*
X3517920Y-1202341D01*
X3517920Y-1202341D02*
X3517920Y-1164246D01*
X3517920Y-1164246D02*
X3527444Y-1116627D01*
X3527444Y-1116627D02*
X3536968Y-1088055D01*
X3536968Y-1088055D02*
X3546491Y-1069008D01*
X3546491Y-1069008D02*
X3565539Y-1040436D01*
X3565539Y-1040436D02*
X3575063Y-1030912D01*
X3641729Y-1078531D02*
X3651253Y-1069008D01*
X3651253Y-1069008D02*
X3670301Y-1059484D01*
X3670301Y-1059484D02*
X3717920Y-1059484D01*
X3717920Y-1059484D02*
X3736968Y-1069008D01*
X3736968Y-1069008D02*
X3746491Y-1078531D01*
X3746491Y-1078531D02*
X3756015Y-1097579D01*
X3756015Y-1097579D02*
X3756015Y-1116627D01*
X3756015Y-1116627D02*
X3746491Y-1145198D01*
X3746491Y-1145198D02*
X3632206Y-1259484D01*
X3632206Y-1259484D02*
X3756015Y-1259484D01*
X3994110Y-1259484D02*
X3994110Y-1059484D01*
X4079825Y-1259484D02*
X4079825Y-1154722D01*
X4079825Y-1154722D02*
X4070301Y-1135674D01*
X4070301Y-1135674D02*
X4051253Y-1126150D01*
X4051253Y-1126150D02*
X4022682Y-1126150D01*
X4022682Y-1126150D02*
X4003634Y-1135674D01*
X4003634Y-1135674D02*
X3994110Y-1145198D01*
X4203634Y-1259484D02*
X4184587Y-1249960D01*
X4184587Y-1249960D02*
X4175063Y-1240436D01*
X4175063Y-1240436D02*
X4165539Y-1221389D01*
X4165539Y-1221389D02*
X4165539Y-1164246D01*
X4165539Y-1164246D02*
X4175063Y-1145198D01*
X4175063Y-1145198D02*
X4184587Y-1135674D01*
X4184587Y-1135674D02*
X4203634Y-1126150D01*
X4203634Y-1126150D02*
X4232206Y-1126150D01*
X4232206Y-1126150D02*
X4251253Y-1135674D01*
X4251253Y-1135674D02*
X4260777Y-1145198D01*
X4260777Y-1145198D02*
X4270301Y-1164246D01*
X4270301Y-1164246D02*
X4270301Y-1221389D01*
X4270301Y-1221389D02*
X4260777Y-1240436D01*
X4260777Y-1240436D02*
X4251253Y-1249960D01*
X4251253Y-1249960D02*
X4232206Y-1259484D01*
X4232206Y-1259484D02*
X4203634Y-1259484D01*
X4384587Y-1259484D02*
X4365539Y-1249960D01*
X4365539Y-1249960D02*
X4356015Y-1230912D01*
X4356015Y-1230912D02*
X4356015Y-1059484D01*
X4536968Y-1249960D02*
X4517920Y-1259484D01*
X4517920Y-1259484D02*
X4479825Y-1259484D01*
X4479825Y-1259484D02*
X4460777Y-1249960D01*
X4460777Y-1249960D02*
X4451253Y-1230912D01*
X4451253Y-1230912D02*
X4451253Y-1154722D01*
X4451253Y-1154722D02*
X4460777Y-1135674D01*
X4460777Y-1135674D02*
X4479825Y-1126150D01*
X4479825Y-1126150D02*
X4517920Y-1126150D01*
X4517920Y-1126150D02*
X4536968Y-1135674D01*
X4536968Y-1135674D02*
X4546492Y-1154722D01*
X4546492Y-1154722D02*
X4546492Y-1173770D01*
X4546492Y-1173770D02*
X4451253Y-1192817D01*
X4622682Y-1249960D02*
X4641730Y-1259484D01*
X4641730Y-1259484D02*
X4679825Y-1259484D01*
X4679825Y-1259484D02*
X4698873Y-1249960D01*
X4698873Y-1249960D02*
X4708396Y-1230912D01*
X4708396Y-1230912D02*
X4708396Y-1221389D01*
X4708396Y-1221389D02*
X4698873Y-1202341D01*
X4698873Y-1202341D02*
X4679825Y-1192817D01*
X4679825Y-1192817D02*
X4651253Y-1192817D01*
X4651253Y-1192817D02*
X4632206Y-1183293D01*
X4632206Y-1183293D02*
X4622682Y-1164246D01*
X4622682Y-1164246D02*
X4622682Y-1154722D01*
X4622682Y-1154722D02*
X4632206Y-1135674D01*
X4632206Y-1135674D02*
X4651253Y-1126150D01*
X4651253Y-1126150D02*
X4679825Y-1126150D01*
X4679825Y-1126150D02*
X4698873Y-1135674D01*
X4775063Y-1335674D02*
X4784587Y-1326150D01*
X4784587Y-1326150D02*
X4803634Y-1297579D01*
X4803634Y-1297579D02*
X4813158Y-1278531D01*
X4813158Y-1278531D02*
X4822682Y-1249960D01*
X4822682Y-1249960D02*
X4832206Y-1202341D01*
X4832206Y-1202341D02*
X4832206Y-1164246D01*
X4832206Y-1164246D02*
X4822682Y-1116627D01*
X4822682Y-1116627D02*
X4813158Y-1088055D01*
X4813158Y-1088055D02*
X4803634Y-1069008D01*
X4803634Y-1069008D02*
X4784587Y-1040436D01*
X4784587Y-1040436D02*
X4775063Y-1030912D01*
D11*
X-14644Y-1467356D02*
X-14644Y-1396644D01*
X-85356Y-1396644D01*
X-85356Y-1467356D01*
X-14644Y-1467356D01*
D10*
X365539Y-1523484D02*
X251253Y-1523484D01*
X308396Y-1523484D02*
X308396Y-1323484D01*
X308396Y-1323484D02*
X289348Y-1352055D01*
X289348Y-1352055D02*
X270301Y-1371103D01*
X270301Y-1371103D02*
X251253Y-1380627D01*
X451253Y-1504436D02*
X460777Y-1513960D01*
X460777Y-1513960D02*
X451253Y-1523484D01*
X451253Y-1523484D02*
X441729Y-1513960D01*
X441729Y-1513960D02*
X451253Y-1504436D01*
X451253Y-1504436D02*
X451253Y-1523484D01*
X584586Y-1323484D02*
X603634Y-1323484D01*
X603634Y-1323484D02*
X622682Y-1333008D01*
X622682Y-1333008D02*
X632205Y-1342531D01*
X632205Y-1342531D02*
X641729Y-1361579D01*
X641729Y-1361579D02*
X651253Y-1399674D01*
X651253Y-1399674D02*
X651253Y-1447293D01*
X651253Y-1447293D02*
X641729Y-1485388D01*
X641729Y-1485388D02*
X632205Y-1504436D01*
X632205Y-1504436D02*
X622682Y-1513960D01*
X622682Y-1513960D02*
X603634Y-1523484D01*
X603634Y-1523484D02*
X584586Y-1523484D01*
X584586Y-1523484D02*
X565539Y-1513960D01*
X565539Y-1513960D02*
X556015Y-1504436D01*
X556015Y-1504436D02*
X546491Y-1485388D01*
X546491Y-1485388D02*
X536967Y-1447293D01*
X536967Y-1447293D02*
X536967Y-1399674D01*
X536967Y-1399674D02*
X546491Y-1361579D01*
X546491Y-1361579D02*
X556015Y-1342531D01*
X556015Y-1342531D02*
X565539Y-1333008D01*
X565539Y-1333008D02*
X584586Y-1323484D01*
X775062Y-1323484D02*
X794110Y-1323484D01*
X794110Y-1323484D02*
X813158Y-1333008D01*
X813158Y-1333008D02*
X822682Y-1342531D01*
X822682Y-1342531D02*
X832205Y-1361579D01*
X832205Y-1361579D02*
X841729Y-1399674D01*
X841729Y-1399674D02*
X841729Y-1447293D01*
X841729Y-1447293D02*
X832205Y-1485388D01*
X832205Y-1485388D02*
X822682Y-1504436D01*
X822682Y-1504436D02*
X813158Y-1513960D01*
X813158Y-1513960D02*
X794110Y-1523484D01*
X794110Y-1523484D02*
X775062Y-1523484D01*
X775062Y-1523484D02*
X756015Y-1513960D01*
X756015Y-1513960D02*
X746491Y-1504436D01*
X746491Y-1504436D02*
X736967Y-1485388D01*
X736967Y-1485388D02*
X727443Y-1447293D01*
X727443Y-1447293D02*
X727443Y-1399674D01*
X727443Y-1399674D02*
X736967Y-1361579D01*
X736967Y-1361579D02*
X746491Y-1342531D01*
X746491Y-1342531D02*
X756015Y-1333008D01*
X756015Y-1333008D02*
X775062Y-1323484D01*
X965539Y-1323484D02*
X984586Y-1323484D01*
X984586Y-1323484D02*
X1003634Y-1333008D01*
X1003634Y-1333008D02*
X1013158Y-1342531D01*
X1013158Y-1342531D02*
X1022682Y-1361579D01*
X1022682Y-1361579D02*
X1032205Y-1399674D01*
X1032205Y-1399674D02*
X1032205Y-1447293D01*
X1032205Y-1447293D02*
X1022682Y-1485388D01*
X1022682Y-1485388D02*
X1013158Y-1504436D01*
X1013158Y-1504436D02*
X1003634Y-1513960D01*
X1003634Y-1513960D02*
X984586Y-1523484D01*
X984586Y-1523484D02*
X965539Y-1523484D01*
X965539Y-1523484D02*
X946491Y-1513960D01*
X946491Y-1513960D02*
X936967Y-1504436D01*
X936967Y-1504436D02*
X927443Y-1485388D01*
X927443Y-1485388D02*
X917920Y-1447293D01*
X917920Y-1447293D02*
X917920Y-1399674D01*
X917920Y-1399674D02*
X927443Y-1361579D01*
X927443Y-1361579D02*
X936967Y-1342531D01*
X936967Y-1342531D02*
X946491Y-1333008D01*
X946491Y-1333008D02*
X965539Y-1323484D01*
X1117920Y-1523484D02*
X1117920Y-1390150D01*
X1117920Y-1409198D02*
X1127444Y-1399674D01*
X1127444Y-1399674D02*
X1146491Y-1390150D01*
X1146491Y-1390150D02*
X1175063Y-1390150D01*
X1175063Y-1390150D02*
X1194110Y-1399674D01*
X1194110Y-1399674D02*
X1203634Y-1418722D01*
X1203634Y-1418722D02*
X1203634Y-1523484D01*
X1203634Y-1418722D02*
X1213158Y-1399674D01*
X1213158Y-1399674D02*
X1232205Y-1390150D01*
X1232205Y-1390150D02*
X1260777Y-1390150D01*
X1260777Y-1390150D02*
X1279825Y-1399674D01*
X1279825Y-1399674D02*
X1289348Y-1418722D01*
X1289348Y-1418722D02*
X1289348Y-1523484D01*
X1384586Y-1523484D02*
X1384586Y-1390150D01*
X1384586Y-1409198D02*
X1394110Y-1399674D01*
X1394110Y-1399674D02*
X1413158Y-1390150D01*
X1413158Y-1390150D02*
X1441729Y-1390150D01*
X1441729Y-1390150D02*
X1460777Y-1399674D01*
X1460777Y-1399674D02*
X1470301Y-1418722D01*
X1470301Y-1418722D02*
X1470301Y-1523484D01*
X1470301Y-1418722D02*
X1479824Y-1399674D01*
X1479824Y-1399674D02*
X1498872Y-1390150D01*
X1498872Y-1390150D02*
X1527443Y-1390150D01*
X1527443Y-1390150D02*
X1546491Y-1399674D01*
X1546491Y-1399674D02*
X1556015Y-1418722D01*
X1556015Y-1418722D02*
X1556015Y-1523484D01*
X1946491Y-1313960D02*
X1775063Y-1571103D01*
X2203634Y-1323484D02*
X2222682Y-1323484D01*
X2222682Y-1323484D02*
X2241729Y-1333008D01*
X2241729Y-1333008D02*
X2251253Y-1342531D01*
X2251253Y-1342531D02*
X2260777Y-1361579D01*
X2260777Y-1361579D02*
X2270301Y-1399674D01*
X2270301Y-1399674D02*
X2270301Y-1447293D01*
X2270301Y-1447293D02*
X2260777Y-1485388D01*
X2260777Y-1485388D02*
X2251253Y-1504436D01*
X2251253Y-1504436D02*
X2241729Y-1513960D01*
X2241729Y-1513960D02*
X2222682Y-1523484D01*
X2222682Y-1523484D02*
X2203634Y-1523484D01*
X2203634Y-1523484D02*
X2184587Y-1513960D01*
X2184587Y-1513960D02*
X2175063Y-1504436D01*
X2175063Y-1504436D02*
X2165539Y-1485388D01*
X2165539Y-1485388D02*
X2156015Y-1447293D01*
X2156015Y-1447293D02*
X2156015Y-1399674D01*
X2156015Y-1399674D02*
X2165539Y-1361579D01*
X2165539Y-1361579D02*
X2175063Y-1342531D01*
X2175063Y-1342531D02*
X2184587Y-1333008D01*
X2184587Y-1333008D02*
X2203634Y-1323484D01*
X2356015Y-1504436D02*
X2365539Y-1513960D01*
X2365539Y-1513960D02*
X2356015Y-1523484D01*
X2356015Y-1523484D02*
X2346491Y-1513960D01*
X2346491Y-1513960D02*
X2356015Y-1504436D01*
X2356015Y-1504436D02*
X2356015Y-1523484D01*
X2489348Y-1323484D02*
X2508396Y-1323484D01*
X2508396Y-1323484D02*
X2527444Y-1333008D01*
X2527444Y-1333008D02*
X2536968Y-1342531D01*
X2536968Y-1342531D02*
X2546491Y-1361579D01*
X2546491Y-1361579D02*
X2556015Y-1399674D01*
X2556015Y-1399674D02*
X2556015Y-1447293D01*
X2556015Y-1447293D02*
X2546491Y-1485388D01*
X2546491Y-1485388D02*
X2536968Y-1504436D01*
X2536968Y-1504436D02*
X2527444Y-1513960D01*
X2527444Y-1513960D02*
X2508396Y-1523484D01*
X2508396Y-1523484D02*
X2489348Y-1523484D01*
X2489348Y-1523484D02*
X2470301Y-1513960D01*
X2470301Y-1513960D02*
X2460777Y-1504436D01*
X2460777Y-1504436D02*
X2451253Y-1485388D01*
X2451253Y-1485388D02*
X2441729Y-1447293D01*
X2441729Y-1447293D02*
X2441729Y-1399674D01*
X2441729Y-1399674D02*
X2451253Y-1361579D01*
X2451253Y-1361579D02*
X2460777Y-1342531D01*
X2460777Y-1342531D02*
X2470301Y-1333008D01*
X2470301Y-1333008D02*
X2489348Y-1323484D01*
X2622682Y-1323484D02*
X2746491Y-1323484D01*
X2746491Y-1323484D02*
X2679825Y-1399674D01*
X2679825Y-1399674D02*
X2708396Y-1399674D01*
X2708396Y-1399674D02*
X2727444Y-1409198D01*
X2727444Y-1409198D02*
X2736968Y-1418722D01*
X2736968Y-1418722D02*
X2746491Y-1437769D01*
X2746491Y-1437769D02*
X2746491Y-1485388D01*
X2746491Y-1485388D02*
X2736968Y-1504436D01*
X2736968Y-1504436D02*
X2727444Y-1513960D01*
X2727444Y-1513960D02*
X2708396Y-1523484D01*
X2708396Y-1523484D02*
X2651253Y-1523484D01*
X2651253Y-1523484D02*
X2632206Y-1513960D01*
X2632206Y-1513960D02*
X2622682Y-1504436D01*
X2841729Y-1523484D02*
X2879825Y-1523484D01*
X2879825Y-1523484D02*
X2898872Y-1513960D01*
X2898872Y-1513960D02*
X2908396Y-1504436D01*
X2908396Y-1504436D02*
X2927444Y-1475865D01*
X2927444Y-1475865D02*
X2936967Y-1437769D01*
X2936967Y-1437769D02*
X2936967Y-1361579D01*
X2936967Y-1361579D02*
X2927444Y-1342531D01*
X2927444Y-1342531D02*
X2917920Y-1333008D01*
X2917920Y-1333008D02*
X2898872Y-1323484D01*
X2898872Y-1323484D02*
X2860777Y-1323484D01*
X2860777Y-1323484D02*
X2841729Y-1333008D01*
X2841729Y-1333008D02*
X2832206Y-1342531D01*
X2832206Y-1342531D02*
X2822682Y-1361579D01*
X2822682Y-1361579D02*
X2822682Y-1409198D01*
X2822682Y-1409198D02*
X2832206Y-1428246D01*
X2832206Y-1428246D02*
X2841729Y-1437769D01*
X2841729Y-1437769D02*
X2860777Y-1447293D01*
X2860777Y-1447293D02*
X2898872Y-1447293D01*
X2898872Y-1447293D02*
X2917920Y-1437769D01*
X2917920Y-1437769D02*
X2927444Y-1428246D01*
X2927444Y-1428246D02*
X2936967Y-1409198D01*
X3108396Y-1390150D02*
X3108396Y-1523484D01*
X3060777Y-1313960D02*
X3013158Y-1456817D01*
X3013158Y-1456817D02*
X3136967Y-1456817D01*
X3203634Y-1323484D02*
X3203634Y-1361579D01*
X3279825Y-1323484D02*
X3279825Y-1361579D01*
X3575063Y-1599674D02*
X3565539Y-1590150D01*
X3565539Y-1590150D02*
X3546491Y-1561579D01*
X3546491Y-1561579D02*
X3536968Y-1542531D01*
X3536968Y-1542531D02*
X3527444Y-1513960D01*
X3527444Y-1513960D02*
X3517920Y-1466341D01*
X3517920Y-1466341D02*
X3517920Y-1428246D01*
X3517920Y-1428246D02*
X3527444Y-1380627D01*
X3527444Y-1380627D02*
X3536968Y-1352055D01*
X3536968Y-1352055D02*
X3546491Y-1333008D01*
X3546491Y-1333008D02*
X3565539Y-1304436D01*
X3565539Y-1304436D02*
X3575063Y-1294912D01*
X3736968Y-1390150D02*
X3736968Y-1523484D01*
X3689348Y-1313960D02*
X3641729Y-1456817D01*
X3641729Y-1456817D02*
X3765539Y-1456817D01*
X3994110Y-1523484D02*
X3994110Y-1323484D01*
X4079825Y-1523484D02*
X4079825Y-1418722D01*
X4079825Y-1418722D02*
X4070301Y-1399674D01*
X4070301Y-1399674D02*
X4051253Y-1390150D01*
X4051253Y-1390150D02*
X4022682Y-1390150D01*
X4022682Y-1390150D02*
X4003634Y-1399674D01*
X4003634Y-1399674D02*
X3994110Y-1409198D01*
X4203634Y-1523484D02*
X4184587Y-1513960D01*
X4184587Y-1513960D02*
X4175063Y-1504436D01*
X4175063Y-1504436D02*
X4165539Y-1485388D01*
X4165539Y-1485388D02*
X4165539Y-1428246D01*
X4165539Y-1428246D02*
X4175063Y-1409198D01*
X4175063Y-1409198D02*
X4184587Y-1399674D01*
X4184587Y-1399674D02*
X4203634Y-1390150D01*
X4203634Y-1390150D02*
X4232206Y-1390150D01*
X4232206Y-1390150D02*
X4251253Y-1399674D01*
X4251253Y-1399674D02*
X4260777Y-1409198D01*
X4260777Y-1409198D02*
X4270301Y-1428246D01*
X4270301Y-1428246D02*
X4270301Y-1485388D01*
X4270301Y-1485388D02*
X4260777Y-1504436D01*
X4260777Y-1504436D02*
X4251253Y-1513960D01*
X4251253Y-1513960D02*
X4232206Y-1523484D01*
X4232206Y-1523484D02*
X4203634Y-1523484D01*
X4384587Y-1523484D02*
X4365539Y-1513960D01*
X4365539Y-1513960D02*
X4356015Y-1494912D01*
X4356015Y-1494912D02*
X4356015Y-1323484D01*
X4536968Y-1513960D02*
X4517920Y-1523484D01*
X4517920Y-1523484D02*
X4479825Y-1523484D01*
X4479825Y-1523484D02*
X4460777Y-1513960D01*
X4460777Y-1513960D02*
X4451253Y-1494912D01*
X4451253Y-1494912D02*
X4451253Y-1418722D01*
X4451253Y-1418722D02*
X4460777Y-1399674D01*
X4460777Y-1399674D02*
X4479825Y-1390150D01*
X4479825Y-1390150D02*
X4517920Y-1390150D01*
X4517920Y-1390150D02*
X4536968Y-1399674D01*
X4536968Y-1399674D02*
X4546492Y-1418722D01*
X4546492Y-1418722D02*
X4546492Y-1437769D01*
X4546492Y-1437769D02*
X4451253Y-1456817D01*
X4622682Y-1513960D02*
X4641730Y-1523484D01*
X4641730Y-1523484D02*
X4679825Y-1523484D01*
X4679825Y-1523484D02*
X4698873Y-1513960D01*
X4698873Y-1513960D02*
X4708396Y-1494912D01*
X4708396Y-1494912D02*
X4708396Y-1485388D01*
X4708396Y-1485388D02*
X4698873Y-1466341D01*
X4698873Y-1466341D02*
X4679825Y-1456817D01*
X4679825Y-1456817D02*
X4651253Y-1456817D01*
X4651253Y-1456817D02*
X4632206Y-1447293D01*
X4632206Y-1447293D02*
X4622682Y-1428246D01*
X4622682Y-1428246D02*
X4622682Y-1418722D01*
X4622682Y-1418722D02*
X4632206Y-1399674D01*
X4632206Y-1399674D02*
X4651253Y-1390150D01*
X4651253Y-1390150D02*
X4679825Y-1390150D01*
X4679825Y-1390150D02*
X4698873Y-1399674D01*
X4775063Y-1599674D02*
X4784587Y-1590150D01*
X4784587Y-1590150D02*
X4803634Y-1561579D01*
X4803634Y-1561579D02*
X4813158Y-1542531D01*
X4813158Y-1542531D02*
X4822682Y-1513960D01*
X4822682Y-1513960D02*
X4832206Y-1466341D01*
X4832206Y-1466341D02*
X4832206Y-1428246D01*
X4832206Y-1428246D02*
X4822682Y-1380627D01*
X4822682Y-1380627D02*
X4813158Y-1352055D01*
X4813158Y-1352055D02*
X4803634Y-1333008D01*
X4803634Y-1333008D02*
X4784587Y-1304436D01*
X4784587Y-1304436D02*
X4775063Y-1294912D01*
D12*
X-55000Y-1751000D02*
X0Y-1696000D01*
X-55000Y-1641000D01*
X-110000Y-1696000D01*
X-55000Y-1751000D01*
D10*
X365539Y-1787484D02*
X251253Y-1787484D01*
X308396Y-1787484D02*
X308396Y-1587484D01*
X308396Y-1587484D02*
X289348Y-1616055D01*
X289348Y-1616055D02*
X270301Y-1635103D01*
X270301Y-1635103D02*
X251253Y-1644627D01*
X451253Y-1768436D02*
X460777Y-1777960D01*
X460777Y-1777960D02*
X451253Y-1787484D01*
X451253Y-1787484D02*
X441729Y-1777960D01*
X441729Y-1777960D02*
X451253Y-1768436D01*
X451253Y-1768436D02*
X451253Y-1787484D01*
X651253Y-1787484D02*
X536967Y-1787484D01*
X594110Y-1787484D02*
X594110Y-1587484D01*
X594110Y-1587484D02*
X575063Y-1616055D01*
X575063Y-1616055D02*
X556015Y-1635103D01*
X556015Y-1635103D02*
X536967Y-1644627D01*
X775062Y-1587484D02*
X794110Y-1587484D01*
X794110Y-1587484D02*
X813158Y-1597008D01*
X813158Y-1597008D02*
X822682Y-1606531D01*
X822682Y-1606531D02*
X832205Y-1625579D01*
X832205Y-1625579D02*
X841729Y-1663674D01*
X841729Y-1663674D02*
X841729Y-1711293D01*
X841729Y-1711293D02*
X832205Y-1749388D01*
X832205Y-1749388D02*
X822682Y-1768436D01*
X822682Y-1768436D02*
X813158Y-1777960D01*
X813158Y-1777960D02*
X794110Y-1787484D01*
X794110Y-1787484D02*
X775062Y-1787484D01*
X775062Y-1787484D02*
X756015Y-1777960D01*
X756015Y-1777960D02*
X746491Y-1768436D01*
X746491Y-1768436D02*
X736967Y-1749388D01*
X736967Y-1749388D02*
X727443Y-1711293D01*
X727443Y-1711293D02*
X727443Y-1663674D01*
X727443Y-1663674D02*
X736967Y-1625579D01*
X736967Y-1625579D02*
X746491Y-1606531D01*
X746491Y-1606531D02*
X756015Y-1597008D01*
X756015Y-1597008D02*
X775062Y-1587484D01*
X965539Y-1587484D02*
X984586Y-1587484D01*
X984586Y-1587484D02*
X1003634Y-1597008D01*
X1003634Y-1597008D02*
X1013158Y-1606531D01*
X1013158Y-1606531D02*
X1022682Y-1625579D01*
X1022682Y-1625579D02*
X1032205Y-1663674D01*
X1032205Y-1663674D02*
X1032205Y-1711293D01*
X1032205Y-1711293D02*
X1022682Y-1749388D01*
X1022682Y-1749388D02*
X1013158Y-1768436D01*
X1013158Y-1768436D02*
X1003634Y-1777960D01*
X1003634Y-1777960D02*
X984586Y-1787484D01*
X984586Y-1787484D02*
X965539Y-1787484D01*
X965539Y-1787484D02*
X946491Y-1777960D01*
X946491Y-1777960D02*
X936967Y-1768436D01*
X936967Y-1768436D02*
X927443Y-1749388D01*
X927443Y-1749388D02*
X917920Y-1711293D01*
X917920Y-1711293D02*
X917920Y-1663674D01*
X917920Y-1663674D02*
X927443Y-1625579D01*
X927443Y-1625579D02*
X936967Y-1606531D01*
X936967Y-1606531D02*
X946491Y-1597008D01*
X946491Y-1597008D02*
X965539Y-1587484D01*
X1117920Y-1787484D02*
X1117920Y-1654150D01*
X1117920Y-1673198D02*
X1127444Y-1663674D01*
X1127444Y-1663674D02*
X1146491Y-1654150D01*
X1146491Y-1654150D02*
X1175063Y-1654150D01*
X1175063Y-1654150D02*
X1194110Y-1663674D01*
X1194110Y-1663674D02*
X1203634Y-1682722D01*
X1203634Y-1682722D02*
X1203634Y-1787484D01*
X1203634Y-1682722D02*
X1213158Y-1663674D01*
X1213158Y-1663674D02*
X1232205Y-1654150D01*
X1232205Y-1654150D02*
X1260777Y-1654150D01*
X1260777Y-1654150D02*
X1279825Y-1663674D01*
X1279825Y-1663674D02*
X1289348Y-1682722D01*
X1289348Y-1682722D02*
X1289348Y-1787484D01*
X1384586Y-1787484D02*
X1384586Y-1654150D01*
X1384586Y-1673198D02*
X1394110Y-1663674D01*
X1394110Y-1663674D02*
X1413158Y-1654150D01*
X1413158Y-1654150D02*
X1441729Y-1654150D01*
X1441729Y-1654150D02*
X1460777Y-1663674D01*
X1460777Y-1663674D02*
X1470301Y-1682722D01*
X1470301Y-1682722D02*
X1470301Y-1787484D01*
X1470301Y-1682722D02*
X1479824Y-1663674D01*
X1479824Y-1663674D02*
X1498872Y-1654150D01*
X1498872Y-1654150D02*
X1527443Y-1654150D01*
X1527443Y-1654150D02*
X1546491Y-1663674D01*
X1546491Y-1663674D02*
X1556015Y-1682722D01*
X1556015Y-1682722D02*
X1556015Y-1787484D01*
X1946491Y-1577960D02*
X1775063Y-1835103D01*
X2203634Y-1587484D02*
X2222682Y-1587484D01*
X2222682Y-1587484D02*
X2241729Y-1597008D01*
X2241729Y-1597008D02*
X2251253Y-1606531D01*
X2251253Y-1606531D02*
X2260777Y-1625579D01*
X2260777Y-1625579D02*
X2270301Y-1663674D01*
X2270301Y-1663674D02*
X2270301Y-1711293D01*
X2270301Y-1711293D02*
X2260777Y-1749388D01*
X2260777Y-1749388D02*
X2251253Y-1768436D01*
X2251253Y-1768436D02*
X2241729Y-1777960D01*
X2241729Y-1777960D02*
X2222682Y-1787484D01*
X2222682Y-1787484D02*
X2203634Y-1787484D01*
X2203634Y-1787484D02*
X2184587Y-1777960D01*
X2184587Y-1777960D02*
X2175063Y-1768436D01*
X2175063Y-1768436D02*
X2165539Y-1749388D01*
X2165539Y-1749388D02*
X2156015Y-1711293D01*
X2156015Y-1711293D02*
X2156015Y-1663674D01*
X2156015Y-1663674D02*
X2165539Y-1625579D01*
X2165539Y-1625579D02*
X2175063Y-1606531D01*
X2175063Y-1606531D02*
X2184587Y-1597008D01*
X2184587Y-1597008D02*
X2203634Y-1587484D01*
X2356015Y-1768436D02*
X2365539Y-1777960D01*
X2365539Y-1777960D02*
X2356015Y-1787484D01*
X2356015Y-1787484D02*
X2346491Y-1777960D01*
X2346491Y-1777960D02*
X2356015Y-1768436D01*
X2356015Y-1768436D02*
X2356015Y-1787484D01*
X2489348Y-1587484D02*
X2508396Y-1587484D01*
X2508396Y-1587484D02*
X2527444Y-1597008D01*
X2527444Y-1597008D02*
X2536968Y-1606531D01*
X2536968Y-1606531D02*
X2546491Y-1625579D01*
X2546491Y-1625579D02*
X2556015Y-1663674D01*
X2556015Y-1663674D02*
X2556015Y-1711293D01*
X2556015Y-1711293D02*
X2546491Y-1749388D01*
X2546491Y-1749388D02*
X2536968Y-1768436D01*
X2536968Y-1768436D02*
X2527444Y-1777960D01*
X2527444Y-1777960D02*
X2508396Y-1787484D01*
X2508396Y-1787484D02*
X2489348Y-1787484D01*
X2489348Y-1787484D02*
X2470301Y-1777960D01*
X2470301Y-1777960D02*
X2460777Y-1768436D01*
X2460777Y-1768436D02*
X2451253Y-1749388D01*
X2451253Y-1749388D02*
X2441729Y-1711293D01*
X2441729Y-1711293D02*
X2441729Y-1663674D01*
X2441729Y-1663674D02*
X2451253Y-1625579D01*
X2451253Y-1625579D02*
X2460777Y-1606531D01*
X2460777Y-1606531D02*
X2470301Y-1597008D01*
X2470301Y-1597008D02*
X2489348Y-1587484D01*
X2727444Y-1654150D02*
X2727444Y-1787484D01*
X2679825Y-1577960D02*
X2632206Y-1720817D01*
X2632206Y-1720817D02*
X2756015Y-1720817D01*
X2813158Y-1587484D02*
X2936967Y-1587484D01*
X2936967Y-1587484D02*
X2870301Y-1663674D01*
X2870301Y-1663674D02*
X2898872Y-1663674D01*
X2898872Y-1663674D02*
X2917920Y-1673198D01*
X2917920Y-1673198D02*
X2927444Y-1682722D01*
X2927444Y-1682722D02*
X2936967Y-1701769D01*
X2936967Y-1701769D02*
X2936967Y-1749388D01*
X2936967Y-1749388D02*
X2927444Y-1768436D01*
X2927444Y-1768436D02*
X2917920Y-1777960D01*
X2917920Y-1777960D02*
X2898872Y-1787484D01*
X2898872Y-1787484D02*
X2841729Y-1787484D01*
X2841729Y-1787484D02*
X2822682Y-1777960D01*
X2822682Y-1777960D02*
X2813158Y-1768436D01*
X3003634Y-1587484D02*
X3127444Y-1587484D01*
X3127444Y-1587484D02*
X3060777Y-1663674D01*
X3060777Y-1663674D02*
X3089348Y-1663674D01*
X3089348Y-1663674D02*
X3108396Y-1673198D01*
X3108396Y-1673198D02*
X3117920Y-1682722D01*
X3117920Y-1682722D02*
X3127444Y-1701769D01*
X3127444Y-1701769D02*
X3127444Y-1749388D01*
X3127444Y-1749388D02*
X3117920Y-1768436D01*
X3117920Y-1768436D02*
X3108396Y-1777960D01*
X3108396Y-1777960D02*
X3089348Y-1787484D01*
X3089348Y-1787484D02*
X3032206Y-1787484D01*
X3032206Y-1787484D02*
X3013158Y-1777960D01*
X3013158Y-1777960D02*
X3003634Y-1768436D01*
X3203634Y-1587484D02*
X3203634Y-1625579D01*
X3279825Y-1587484D02*
X3279825Y-1625579D01*
X3575063Y-1863674D02*
X3565539Y-1854150D01*
X3565539Y-1854150D02*
X3546491Y-1825579D01*
X3546491Y-1825579D02*
X3536968Y-1806531D01*
X3536968Y-1806531D02*
X3527444Y-1777960D01*
X3527444Y-1777960D02*
X3517920Y-1730341D01*
X3517920Y-1730341D02*
X3517920Y-1692246D01*
X3517920Y-1692246D02*
X3527444Y-1644627D01*
X3527444Y-1644627D02*
X3536968Y-1616055D01*
X3536968Y-1616055D02*
X3546491Y-1597008D01*
X3546491Y-1597008D02*
X3565539Y-1568436D01*
X3565539Y-1568436D02*
X3575063Y-1558912D01*
X3679825Y-1673198D02*
X3660777Y-1663674D01*
X3660777Y-1663674D02*
X3651253Y-1654150D01*
X3651253Y-1654150D02*
X3641729Y-1635103D01*
X3641729Y-1635103D02*
X3641729Y-1625579D01*
X3641729Y-1625579D02*
X3651253Y-1606531D01*
X3651253Y-1606531D02*
X3660777Y-1597008D01*
X3660777Y-1597008D02*
X3679825Y-1587484D01*
X3679825Y-1587484D02*
X3717920Y-1587484D01*
X3717920Y-1587484D02*
X3736968Y-1597008D01*
X3736968Y-1597008D02*
X3746491Y-1606531D01*
X3746491Y-1606531D02*
X3756015Y-1625579D01*
X3756015Y-1625579D02*
X3756015Y-1635103D01*
X3756015Y-1635103D02*
X3746491Y-1654150D01*
X3746491Y-1654150D02*
X3736968Y-1663674D01*
X3736968Y-1663674D02*
X3717920Y-1673198D01*
X3717920Y-1673198D02*
X3679825Y-1673198D01*
X3679825Y-1673198D02*
X3660777Y-1682722D01*
X3660777Y-1682722D02*
X3651253Y-1692246D01*
X3651253Y-1692246D02*
X3641729Y-1711293D01*
X3641729Y-1711293D02*
X3641729Y-1749388D01*
X3641729Y-1749388D02*
X3651253Y-1768436D01*
X3651253Y-1768436D02*
X3660777Y-1777960D01*
X3660777Y-1777960D02*
X3679825Y-1787484D01*
X3679825Y-1787484D02*
X3717920Y-1787484D01*
X3717920Y-1787484D02*
X3736968Y-1777960D01*
X3736968Y-1777960D02*
X3746491Y-1768436D01*
X3746491Y-1768436D02*
X3756015Y-1749388D01*
X3756015Y-1749388D02*
X3756015Y-1711293D01*
X3756015Y-1711293D02*
X3746491Y-1692246D01*
X3746491Y-1692246D02*
X3736968Y-1682722D01*
X3736968Y-1682722D02*
X3717920Y-1673198D01*
X3994110Y-1787484D02*
X3994110Y-1587484D01*
X4079825Y-1787484D02*
X4079825Y-1682722D01*
X4079825Y-1682722D02*
X4070301Y-1663674D01*
X4070301Y-1663674D02*
X4051253Y-1654150D01*
X4051253Y-1654150D02*
X4022682Y-1654150D01*
X4022682Y-1654150D02*
X4003634Y-1663674D01*
X4003634Y-1663674D02*
X3994110Y-1673198D01*
X4203634Y-1787484D02*
X4184587Y-1777960D01*
X4184587Y-1777960D02*
X4175063Y-1768436D01*
X4175063Y-1768436D02*
X4165539Y-1749388D01*
X4165539Y-1749388D02*
X4165539Y-1692246D01*
X4165539Y-1692246D02*
X4175063Y-1673198D01*
X4175063Y-1673198D02*
X4184587Y-1663674D01*
X4184587Y-1663674D02*
X4203634Y-1654150D01*
X4203634Y-1654150D02*
X4232206Y-1654150D01*
X4232206Y-1654150D02*
X4251253Y-1663674D01*
X4251253Y-1663674D02*
X4260777Y-1673198D01*
X4260777Y-1673198D02*
X4270301Y-1692246D01*
X4270301Y-1692246D02*
X4270301Y-1749388D01*
X4270301Y-1749388D02*
X4260777Y-1768436D01*
X4260777Y-1768436D02*
X4251253Y-1777960D01*
X4251253Y-1777960D02*
X4232206Y-1787484D01*
X4232206Y-1787484D02*
X4203634Y-1787484D01*
X4384587Y-1787484D02*
X4365539Y-1777960D01*
X4365539Y-1777960D02*
X4356015Y-1758912D01*
X4356015Y-1758912D02*
X4356015Y-1587484D01*
X4536968Y-1777960D02*
X4517920Y-1787484D01*
X4517920Y-1787484D02*
X4479825Y-1787484D01*
X4479825Y-1787484D02*
X4460777Y-1777960D01*
X4460777Y-1777960D02*
X4451253Y-1758912D01*
X4451253Y-1758912D02*
X4451253Y-1682722D01*
X4451253Y-1682722D02*
X4460777Y-1663674D01*
X4460777Y-1663674D02*
X4479825Y-1654150D01*
X4479825Y-1654150D02*
X4517920Y-1654150D01*
X4517920Y-1654150D02*
X4536968Y-1663674D01*
X4536968Y-1663674D02*
X4546492Y-1682722D01*
X4546492Y-1682722D02*
X4546492Y-1701769D01*
X4546492Y-1701769D02*
X4451253Y-1720817D01*
X4622682Y-1777960D02*
X4641730Y-1787484D01*
X4641730Y-1787484D02*
X4679825Y-1787484D01*
X4679825Y-1787484D02*
X4698873Y-1777960D01*
X4698873Y-1777960D02*
X4708396Y-1758912D01*
X4708396Y-1758912D02*
X4708396Y-1749388D01*
X4708396Y-1749388D02*
X4698873Y-1730341D01*
X4698873Y-1730341D02*
X4679825Y-1720817D01*
X4679825Y-1720817D02*
X4651253Y-1720817D01*
X4651253Y-1720817D02*
X4632206Y-1711293D01*
X4632206Y-1711293D02*
X4622682Y-1692246D01*
X4622682Y-1692246D02*
X4622682Y-1682722D01*
X4622682Y-1682722D02*
X4632206Y-1663674D01*
X4632206Y-1663674D02*
X4651253Y-1654150D01*
X4651253Y-1654150D02*
X4679825Y-1654150D01*
X4679825Y-1654150D02*
X4698873Y-1663674D01*
X4775063Y-1863674D02*
X4784587Y-1854150D01*
X4784587Y-1854150D02*
X4803634Y-1825579D01*
X4803634Y-1825579D02*
X4813158Y-1806531D01*
X4813158Y-1806531D02*
X4822682Y-1777960D01*
X4822682Y-1777960D02*
X4832206Y-1730341D01*
X4832206Y-1730341D02*
X4832206Y-1692246D01*
X4832206Y-1692246D02*
X4822682Y-1644627D01*
X4822682Y-1644627D02*
X4813158Y-1616055D01*
X4813158Y-1616055D02*
X4803634Y-1597008D01*
X4803634Y-1597008D02*
X4784587Y-1568436D01*
X4784587Y-1568436D02*
X4775063Y-1558912D01*
M02*
